<?plantuml 1.2026.2?><svg xmlns="http://www.w3.org/2000/svg" xmlns:xlink="http://www.w3.org/1999/xlink" contentStyleType="text/css" data-diagram-type="CLASS" height="2794px" preserveAspectRatio="none" style="width:4204px;height:2794px;background:#FFFFFF;" version="1.1" viewBox="0 0 4204 2794" width="4204px" zoomAndPan="magnify"><defs/><g><!--class RoleUtilisateur--><g class="entity" data-qualified-name="RoleUtilisateur" data-source-line="12" id="ent0002"><rect fill="#EEF5FF" height="236.875" rx="5" ry="5" style="stroke:#3366CC;stroke-width:1;" width="194.0488" x="27" y="1894"/><ellipse cx="57" cy="1926" fill="#EB937F" rx="22" ry="22" style="stroke:#181818;stroke-width:2;"/><path d="M54.7188,1927.5938 L54.7188,1932.5938 L63.375,1932.5938 L63.375,1930.75 Q63.375,1929.5313 63.8438,1929 Q64.3438,1928.4688 65.0938,1928.4688 Q65.8438,1928.4688 66.3125,1929 Q66.7813,1929.5313 66.7813,1930.75 L66.7813,1936 L50.7813,1936 Q49.5313,1936 49,1935.5313 Q48.5,1935.0625 48.5,1934.2813 Q48.5,1933.5313 49.0313,1933.0625 Q49.5625,1932.5938 50.7813,1932.5938 L51.3125,1932.5938 L51.3125,1919.2813 L50.7813,1919.2813 Q49.5313,1919.2813 49,1918.8125 Q48.5,1918.3438 48.5,1917.5625 Q48.5,1916.8125 49,1916.3438 Q49.5313,1915.875 50.7813,1915.875 L66.0313,1915.875 L66.0313,1921.0625 Q66.0313,1922.2813 65.5625,1922.8125 Q65.125,1923.3125 64.3438,1923.3125 Q63.5938,1923.3125 63.125,1922.8125 Q62.6563,1922.2813 62.6563,1921.0625 L62.6563,1919.2813 L54.7188,1919.2813 L54.7188,1924.1875 L57.6875,1924.1875 Q57.6875,1922.875 57.9375,1922.5 Q58.4688,1921.6875 59.4063,1921.6875 Q60.1563,1921.6875 60.625,1922.2188 Q61.0938,1922.7188 61.0938,1923.9375 L61.0938,1927.875 Q61.0938,1928.9688 60.8438,1929.3438 Q60.3125,1930.125 59.4063,1930.125 Q58.4688,1930.125 57.9375,1929.3125 Q57.6875,1928.9375 57.6875,1927.5938 L54.7188,1927.5938 Z " fill="#000000"/><text fill="#000000" font-family="sans-serif" font-size="20" lengthAdjust="spacing" textLength="130.0488" x="85" y="1934.1836">RoleUtilisateur</text><line style="stroke:#3366CC;stroke-width:1;" x1="29" x2="219.0488" y1="1958" y2="1958"/><text fill="#000000" font-family="sans-serif" font-size="28" lengthAdjust="spacing" textLength="99.6406" x="39" y="1995.0664">etudiant</text><text fill="#000000" font-family="sans-serif" font-size="28" lengthAdjust="spacing" textLength="137.0059" x="39" y="2030.2852">enseignant</text><text fill="#000000" font-family="sans-serif" font-size="28" lengthAdjust="spacing" textLength="76.2617" x="39" y="2065.5039">admin</text><text fill="#000000" font-family="sans-serif" font-size="28" lengthAdjust="spacing" textLength="124.5098" x="39" y="2100.7227">entreprise</text><line style="stroke:#3366CC;stroke-width:1;" x1="29" x2="219.0488" y1="2114.875" y2="2114.875"/></g><!--class GradeEnseignant--><g class="entity" data-qualified-name="GradeEnseignant" data-source-line="19" id="ent0003"><rect fill="#EEF5FF" height="307.3125" rx="5" ry="5" style="stroke:#3366CC;stroke-width:1;" width="219.6641" x="14" y="2200"/><ellipse cx="44" cy="2232" fill="#EB937F" rx="22" ry="22" style="stroke:#181818;stroke-width:2;"/><path d="M41.7188,2233.5938 L41.7188,2238.5938 L50.375,2238.5938 L50.375,2236.75 Q50.375,2235.5313 50.8438,2235 Q51.3438,2234.4688 52.0938,2234.4688 Q52.8438,2234.4688 53.3125,2235 Q53.7813,2235.5313 53.7813,2236.75 L53.7813,2242 L37.7813,2242 Q36.5313,2242 36,2241.5313 Q35.5,2241.0625 35.5,2240.2813 Q35.5,2239.5313 36.0313,2239.0625 Q36.5625,2238.5938 37.7813,2238.5938 L38.3125,2238.5938 L38.3125,2225.2813 L37.7813,2225.2813 Q36.5313,2225.2813 36,2224.8125 Q35.5,2224.3438 35.5,2223.5625 Q35.5,2222.8125 36,2222.3438 Q36.5313,2221.875 37.7813,2221.875 L53.0313,2221.875 L53.0313,2227.0625 Q53.0313,2228.2813 52.5625,2228.8125 Q52.125,2229.3125 51.3438,2229.3125 Q50.5938,2229.3125 50.125,2228.8125 Q49.6563,2228.2813 49.6563,2227.0625 L49.6563,2225.2813 L41.7188,2225.2813 L41.7188,2230.1875 L44.6875,2230.1875 Q44.6875,2228.875 44.9375,2228.5 Q45.4688,2227.6875 46.4063,2227.6875 Q47.1563,2227.6875 47.625,2228.2188 Q48.0938,2228.7188 48.0938,2229.9375 L48.0938,2233.875 Q48.0938,2234.9688 47.8438,2235.3438 Q47.3125,2236.125 46.4063,2236.125 Q45.4688,2236.125 44.9375,2235.3125 Q44.6875,2234.9375 44.6875,2233.5938 L41.7188,2233.5938 Z " fill="#000000"/><text fill="#000000" font-family="sans-serif" font-size="20" lengthAdjust="spacing" textLength="155.6641" x="72" y="2240.1836">GradeEnseignant</text><line style="stroke:#3366CC;stroke-width:1;" x1="16" x2="231.6641" y1="2264" y2="2264"/><text fill="#000000" font-family="sans-serif" font-size="28" lengthAdjust="spacing" textLength="110.4961" x="26" y="2301.0664">assistant</text><text fill="#000000" font-family="sans-serif" font-size="28" lengthAdjust="spacing" textLength="54.4688" x="26" y="2336.2852">mab</text><text fill="#000000" font-family="sans-serif" font-size="28" lengthAdjust="spacing" textLength="54.4688" x="26" y="2371.5039">maa</text><text fill="#000000" font-family="sans-serif" font-size="28" lengthAdjust="spacing" textLength="52.8965" x="26" y="2406.7227">mcb</text><text fill="#000000" font-family="sans-serif" font-size="28" lengthAdjust="spacing" textLength="52.8965" x="26" y="2441.9414">mca</text><text fill="#000000" font-family="sans-serif" font-size="28" lengthAdjust="spacing" textLength="132.2891" x="26" y="2477.1602">professeur</text><line style="stroke:#3366CC;stroke-width:1;" x1="16" x2="231.6641" y1="2491.3125" y2="2491.3125"/></g><!--class TypeGroupement--><g class="entity" data-qualified-name="TypeGroupement" data-source-line="28" id="ent0004"><rect fill="#EEF5FF" height="201.6563" rx="5" ry="5" style="stroke:#3366CC;stroke-width:1;" width="219.6348" x="14" y="2579"/><ellipse cx="44" cy="2611" fill="#EB937F" rx="22" ry="22" style="stroke:#181818;stroke-width:2;"/><path d="M41.7188,2612.5938 L41.7188,2617.5938 L50.375,2617.5938 L50.375,2615.75 Q50.375,2614.5313 50.8438,2614 Q51.3438,2613.4688 52.0938,2613.4688 Q52.8438,2613.4688 53.3125,2614 Q53.7813,2614.5313 53.7813,2615.75 L53.7813,2621 L37.7813,2621 Q36.5313,2621 36,2620.5313 Q35.5,2620.0625 35.5,2619.2813 Q35.5,2618.5313 36.0313,2618.0625 Q36.5625,2617.5938 37.7813,2617.5938 L38.3125,2617.5938 L38.3125,2604.2813 L37.7813,2604.2813 Q36.5313,2604.2813 36,2603.8125 Q35.5,2603.3438 35.5,2602.5625 Q35.5,2601.8125 36,2601.3438 Q36.5313,2600.875 37.7813,2600.875 L53.0313,2600.875 L53.0313,2606.0625 Q53.0313,2607.2813 52.5625,2607.8125 Q52.125,2608.3125 51.3438,2608.3125 Q50.5938,2608.3125 50.125,2607.8125 Q49.6563,2607.2813 49.6563,2606.0625 L49.6563,2604.2813 L41.7188,2604.2813 L41.7188,2609.1875 L44.6875,2609.1875 Q44.6875,2607.875 44.9375,2607.5 Q45.4688,2606.6875 46.4063,2606.6875 Q47.1563,2606.6875 47.625,2607.2188 Q48.0938,2607.7188 48.0938,2608.9375 L48.0938,2612.875 Q48.0938,2613.9688 47.8438,2614.3438 Q47.3125,2615.125 46.4063,2615.125 Q45.4688,2615.125 44.9375,2614.3125 Q44.6875,2613.9375 44.6875,2612.5938 L41.7188,2612.5938 Z " fill="#000000"/><text fill="#000000" font-family="sans-serif" font-size="20" lengthAdjust="spacing" textLength="155.6348" x="72" y="2619.1836">TypeGroupement</text><line style="stroke:#3366CC;stroke-width:1;" x1="16" x2="231.6348" y1="2643" y2="2643"/><text fill="#000000" font-family="sans-serif" font-size="28" lengthAdjust="spacing" textLength="108.9375" x="26" y="2680.0664">monome</text><text fill="#000000" font-family="sans-serif" font-size="28" lengthAdjust="spacing" textLength="91.834" x="26" y="2715.2852">binome</text><text fill="#000000" font-family="sans-serif" font-size="28" lengthAdjust="spacing" textLength="93.3652" x="26" y="2750.5039">trinome</text><line style="stroke:#3366CC;stroke-width:1;" x1="16" x2="231.6348" y1="2764.6563" y2="2764.6563"/></g><!--class StatutSujet--><g class="entity" data-qualified-name="StatutSujet" data-source-line="34" id="ent0005"><rect fill="#EEF5FF" height="236.875" rx="5" ry="5" style="stroke:#3366CC;stroke-width:1;" width="305.7227" x="403" y="1894"/><ellipse cx="498.4404" cy="1926" fill="#EB937F" rx="22" ry="22" style="stroke:#181818;stroke-width:2;"/><path d="M496.1592,1927.5938 L496.1592,1932.5938 L504.8154,1932.5938 L504.8154,1930.75 Q504.8154,1929.5313 505.2842,1929 Q505.7842,1928.4688 506.5342,1928.4688 Q507.2842,1928.4688 507.7529,1929 Q508.2217,1929.5313 508.2217,1930.75 L508.2217,1936 L492.2217,1936 Q490.9717,1936 490.4404,1935.5313 Q489.9404,1935.0625 489.9404,1934.2813 Q489.9404,1933.5313 490.4717,1933.0625 Q491.0029,1932.5938 492.2217,1932.5938 L492.7529,1932.5938 L492.7529,1919.2813 L492.2217,1919.2813 Q490.9717,1919.2813 490.4404,1918.8125 Q489.9404,1918.3438 489.9404,1917.5625 Q489.9404,1916.8125 490.4404,1916.3438 Q490.9717,1915.875 492.2217,1915.875 L507.4717,1915.875 L507.4717,1921.0625 Q507.4717,1922.2813 507.0029,1922.8125 Q506.5654,1923.3125 505.7842,1923.3125 Q505.0342,1923.3125 504.5654,1922.8125 Q504.0967,1922.2813 504.0967,1921.0625 L504.0967,1919.2813 L496.1592,1919.2813 L496.1592,1924.1875 L499.1279,1924.1875 Q499.1279,1922.875 499.3779,1922.5 Q499.9092,1921.6875 500.8467,1921.6875 Q501.5967,1921.6875 502.0654,1922.2188 Q502.5342,1922.7188 502.5342,1923.9375 L502.5342,1927.875 Q502.5342,1928.9688 502.2842,1929.3438 Q501.7529,1930.125 500.8467,1930.125 Q499.9092,1930.125 499.3779,1929.3125 Q499.1279,1928.9375 499.1279,1927.5938 L496.1592,1927.5938 Z " fill="#000000"/><text fill="#000000" font-family="sans-serif" font-size="20" lengthAdjust="spacing" textLength="97.8418" x="539.4404" y="1934.1836">StatutSujet</text><line style="stroke:#3366CC;stroke-width:1;" x1="405" x2="706.7227" y1="1958" y2="1958"/><text fill="#000000" font-family="sans-serif" font-size="28" lengthAdjust="spacing" textLength="132.3438" x="415" y="1995.0664">en_attente</text><text fill="#000000" font-family="sans-serif" font-size="28" lengthAdjust="spacing" textLength="73.1582" x="415" y="2030.2852">valide</text><text fill="#000000" font-family="sans-serif" font-size="28" lengthAdjust="spacing" textLength="281.7227" x="415" y="2065.5039">accepte_sous_reserve</text><text fill="#000000" font-family="sans-serif" font-size="28" lengthAdjust="spacing" textLength="77.8203" x="415" y="2100.7227">refuse</text><line style="stroke:#3366CC;stroke-width:1;" x1="405" x2="706.7227" y1="2114.875" y2="2114.875"/></g><!--class DecisionValidateur--><g class="entity" data-qualified-name="DecisionValidateur" data-source-line="41" id="ent0006"><rect fill="#EEF5FF" height="201.6563" rx="5" ry="5" style="stroke:#3366CC;stroke-width:1;" width="305.7227" x="403" y="2201"/><ellipse cx="466.7342" cy="2233" fill="#EB937F" rx="22" ry="22" style="stroke:#181818;stroke-width:2;"/><path d="M464.4529,2234.5938 L464.4529,2239.5938 L473.1092,2239.5938 L473.1092,2237.75 Q473.1092,2236.5313 473.5779,2236 Q474.0779,2235.4688 474.8279,2235.4688 Q475.5779,2235.4688 476.0467,2236 Q476.5154,2236.5313 476.5154,2237.75 L476.5154,2243 L460.5154,2243 Q459.2654,2243 458.7342,2242.5313 Q458.2342,2242.0625 458.2342,2241.2813 Q458.2342,2240.5313 458.7654,2240.0625 Q459.2967,2239.5938 460.5154,2239.5938 L461.0467,2239.5938 L461.0467,2226.2813 L460.5154,2226.2813 Q459.2654,2226.2813 458.7342,2225.8125 Q458.2342,2225.3438 458.2342,2224.5625 Q458.2342,2223.8125 458.7342,2223.3438 Q459.2654,2222.875 460.5154,2222.875 L475.7654,2222.875 L475.7654,2228.0625 Q475.7654,2229.2813 475.2967,2229.8125 Q474.8592,2230.3125 474.0779,2230.3125 Q473.3279,2230.3125 472.8592,2229.8125 Q472.3904,2229.2813 472.3904,2228.0625 L472.3904,2226.2813 L464.4529,2226.2813 L464.4529,2231.1875 L467.4217,2231.1875 Q467.4217,2229.875 467.6717,2229.5 Q468.2029,2228.6875 469.1404,2228.6875 Q469.8904,2228.6875 470.3592,2229.2188 Q470.8279,2229.7188 470.8279,2230.9375 L470.8279,2234.875 Q470.8279,2235.9688 470.5779,2236.3438 Q470.0467,2237.125 469.1404,2237.125 Q468.2029,2237.125 467.6717,2236.3125 Q467.4217,2235.9375 467.4217,2234.5938 L464.4529,2234.5938 Z " fill="#000000"/><text fill="#000000" font-family="sans-serif" font-size="20" lengthAdjust="spacing" textLength="166.7578" x="502.2307" y="2241.1836">DecisionValidateur</text><line style="stroke:#3366CC;stroke-width:1;" x1="405" x2="706.7227" y1="2265" y2="2265"/><text fill="#000000" font-family="sans-serif" font-size="28" lengthAdjust="spacing" textLength="73.1582" x="415" y="2302.0664">valide</text><text fill="#000000" font-family="sans-serif" font-size="28" lengthAdjust="spacing" textLength="281.7227" x="415" y="2337.2852">accepte_sous_reserve</text><text fill="#000000" font-family="sans-serif" font-size="28" lengthAdjust="spacing" textLength="77.8203" x="415" y="2372.5039">refuse</text><line style="stroke:#3366CC;stroke-width:1;" x1="405" x2="706.7227" y1="2386.6563" y2="2386.6563"/></g><!--class StatutAffectation--><g class="entity" data-qualified-name="StatutAffectation" data-source-line="47" id="ent0007"><rect fill="#EEF5FF" height="272.0938" rx="5" ry="5" style="stroke:#3366CC;stroke-width:1;" width="288.6602" x="412" y="2474"/><ellipse cx="477.0561" cy="2506" fill="#EB937F" rx="22" ry="22" style="stroke:#181818;stroke-width:2;"/><path d="M474.7748,2507.5938 L474.7748,2512.5938 L483.4311,2512.5938 L483.4311,2510.75 Q483.4311,2509.5313 483.8998,2509 Q484.3998,2508.4688 485.1498,2508.4688 Q485.8998,2508.4688 486.3686,2509 Q486.8373,2509.5313 486.8373,2510.75 L486.8373,2516 L470.8373,2516 Q469.5873,2516 469.0561,2515.5313 Q468.5561,2515.0625 468.5561,2514.2813 Q468.5561,2513.5313 469.0873,2513.0625 Q469.6186,2512.5938 470.8373,2512.5938 L471.3686,2512.5938 L471.3686,2499.2813 L470.8373,2499.2813 Q469.5873,2499.2813 469.0561,2498.8125 Q468.5561,2498.3438 468.5561,2497.5625 Q468.5561,2496.8125 469.0561,2496.3438 Q469.5873,2495.875 470.8373,2495.875 L486.0873,2495.875 L486.0873,2501.0625 Q486.0873,2502.2813 485.6186,2502.8125 Q485.1811,2503.3125 484.3998,2503.3125 Q483.6498,2503.3125 483.1811,2502.8125 Q482.7123,2502.2813 482.7123,2501.0625 L482.7123,2499.2813 L474.7748,2499.2813 L474.7748,2504.1875 L477.7436,2504.1875 Q477.7436,2502.875 477.9936,2502.5 Q478.5248,2501.6875 479.4623,2501.6875 Q480.2123,2501.6875 480.6811,2502.2188 Q481.1498,2502.7188 481.1498,2503.9375 L481.1498,2507.875 Q481.1498,2508.9688 480.8998,2509.3438 Q480.3686,2510.125 479.4623,2510.125 Q478.5248,2510.125 477.9936,2509.3125 Q477.7436,2508.9375 477.7436,2507.5938 L474.7748,2507.5938 Z " fill="#000000"/><text fill="#000000" font-family="sans-serif" font-size="20" lengthAdjust="spacing" textLength="146.7578" x="512.8463" y="2514.1836">StatutAffectation</text><line style="stroke:#3366CC;stroke-width:1;" x1="414" x2="698.6602" y1="2538" y2="2538"/><text fill="#000000" font-family="sans-serif" font-size="28" lengthAdjust="spacing" textLength="115.1855" x="424" y="2575.0664">en_cours</text><text fill="#000000" font-family="sans-serif" font-size="28" lengthAdjust="spacing" textLength="213.1719" x="424" y="2610.2852">memoire_soumis</text><text fill="#000000" font-family="sans-serif" font-size="28" lengthAdjust="spacing" textLength="264.6602" x="424" y="2645.5039">soutenance_planifiee</text><text fill="#000000" font-family="sans-serif" font-size="28" lengthAdjust="spacing" textLength="73.1582" x="424" y="2680.7227">valide</text><text fill="#000000" font-family="sans-serif" font-size="28" lengthAdjust="spacing" textLength="77.8203" x="424" y="2715.9414">refuse</text><line style="stroke:#3366CC;stroke-width:1;" x1="414" x2="698.6602" y1="2730.0938" y2="2730.0938"/></g><!--class ResultatSoutenance--><g class="entity" data-qualified-name="ResultatSoutenance" data-source-line="55" id="ent0008"><rect fill="#EEF5FF" height="201.6563" rx="5" ry="5" style="stroke:#3366CC;stroke-width:1;" width="282.3438" x="931" y="1911"/><ellipse cx="978.1976" cy="1943" fill="#EB937F" rx="22" ry="22" style="stroke:#181818;stroke-width:2;"/><path d="M975.9163,1944.5938 L975.9163,1949.5938 L984.5726,1949.5938 L984.5726,1947.75 Q984.5726,1946.5313 985.0413,1946 Q985.5413,1945.4688 986.2913,1945.4688 Q987.0413,1945.4688 987.5101,1946 Q987.9788,1946.5313 987.9788,1947.75 L987.9788,1953 L971.9788,1953 Q970.7288,1953 970.1976,1952.5313 Q969.6976,1952.0625 969.6976,1951.2813 Q969.6976,1950.5313 970.2288,1950.0625 Q970.7601,1949.5938 971.9788,1949.5938 L972.5101,1949.5938 L972.5101,1936.2813 L971.9788,1936.2813 Q970.7288,1936.2813 970.1976,1935.8125 Q969.6976,1935.3438 969.6976,1934.5625 Q969.6976,1933.8125 970.1976,1933.3438 Q970.7288,1932.875 971.9788,1932.875 L987.2288,1932.875 L987.2288,1938.0625 Q987.2288,1939.2813 986.7601,1939.8125 Q986.3226,1940.3125 985.5413,1940.3125 Q984.7913,1940.3125 984.3226,1939.8125 Q983.8538,1939.2813 983.8538,1938.0625 L983.8538,1936.2813 L975.9163,1936.2813 L975.9163,1941.1875 L978.8851,1941.1875 Q978.8851,1939.875 979.1351,1939.5 Q979.6663,1938.6875 980.6038,1938.6875 Q981.3538,1938.6875 981.8226,1939.2188 Q982.2913,1939.7188 982.2913,1940.9375 L982.2913,1944.875 Q982.2913,1945.9688 982.0413,1946.3438 Q981.5101,1947.125 980.6038,1947.125 Q979.6663,1947.125 979.1351,1946.3125 Q978.8851,1945.9375 978.8851,1944.5938 L975.9163,1944.5938 Z " fill="#000000"/><text fill="#000000" font-family="sans-serif" font-size="20" lengthAdjust="spacing" textLength="180.127" x="1010.0192" y="1951.1836">ResultatSoutenance</text><line style="stroke:#3366CC;stroke-width:1;" x1="933" x2="1211.3438" y1="1975" y2="1975"/><text fill="#000000" font-family="sans-serif" font-size="28" lengthAdjust="spacing" textLength="74.6895" x="943" y="2012.0664">admis</text><text fill="#000000" font-family="sans-serif" font-size="28" lengthAdjust="spacing" textLength="258.3438" x="943" y="2047.2852">corrections_requises</text><text fill="#000000" font-family="sans-serif" font-size="28" lengthAdjust="spacing" textLength="136.9785" x="943" y="2082.5039">non_admis</text><line style="stroke:#3366CC;stroke-width:1;" x1="933" x2="1211.3438" y1="2096.6563" y2="2096.6563"/></g><!--class ProfilUtilisateur--><g class="entity" data-qualified-name="ProfilUtilisateur" data-source-line="62" id="ent0009"><rect fill="#EEF5FF" height="377.75" rx="5" ry="5" style="stroke:#3366CC;stroke-width:1;" width="337.6055" x="1510" y="921"/><ellipse cx="1603.0615" cy="953" fill="#ADD1B2" rx="22" ry="22" style="stroke:#181818;stroke-width:2;"/><path d="M1608.5928,944.75 Q1608.9053,944.3125 1609.2803,944.0938 Q1609.6553,943.875 1610.0928,943.875 Q1610.8428,943.875 1611.3115,944.4063 Q1611.7803,944.9063 1611.7803,946.125 L1611.7803,949.0313 Q1611.7803,950.25 1611.3115,950.7813 Q1610.8428,951.3125 1610.0928,951.3125 Q1609.4053,951.3125 1608.999,950.9063 Q1608.5928,950.5313 1608.374,949.5 Q1608.2803,948.7813 1607.9053,948.4063 Q1607.249,947.6563 1606.0303,947.2188 Q1604.8115,946.7813 1603.5615,946.7813 Q1602.0303,946.7813 1600.749,947.4375 Q1599.499,948.0938 1598.499,949.5938 Q1597.5303,951.0938 1597.5303,953.1563 L1597.5303,955.3438 Q1597.5303,957.8125 1599.3115,959.4688 Q1601.0928,961.0938 1604.2803,961.0938 Q1606.1553,961.0938 1607.4678,960.5938 Q1608.249,960.2813 1609.0928,959.4063 Q1609.624,958.875 1609.9053,958.7188 Q1610.2178,958.5625 1610.624,958.5625 Q1611.2803,958.5625 1611.7803,959.0938 Q1612.3115,959.5938 1612.3115,960.2813 Q1612.3115,960.9688 1611.624,961.7813 Q1610.624,962.9375 1609.0303,963.5938 Q1606.874,964.5 1604.2803,964.5 Q1601.249,964.5 1598.8428,963.25 Q1596.874,962.25 1595.499,960.125 Q1594.124,957.9688 1594.124,955.4063 L1594.124,953.0938 Q1594.124,950.4375 1595.3428,948.1563 Q1596.5928,945.8438 1598.7803,944.625 Q1600.9678,943.375 1603.4365,943.375 Q1604.9053,943.375 1606.1865,943.7188 Q1607.499,944.0313 1608.5928,944.75 Z " fill="#000000"/><text fill="#000000" font-family="sans-serif" font-size="20" lengthAdjust="spacing" textLength="134.4824" x="1644.0615" y="961.1836">ProfilUtilisateur</text><line style="stroke:#3366CC;stroke-width:1;" x1="1512" x2="1845.6055" y1="985" y2="985"/><text fill="#000000" font-family="sans-serif" font-size="28" lengthAdjust="spacing" textLength="126.8477" x="1522" y="1022.0664">+id: String</text><text fill="#000000" font-family="sans-serif" font-size="28" lengthAdjust="spacing" textLength="260.668" x="1522" y="1057.2852">+role: RoleUtilisateur</text><text fill="#000000" font-family="sans-serif" font-size="28" lengthAdjust="spacing" textLength="263.7852" x="1522" y="1092.5039">+nomComplet: String</text><text fill="#000000" font-family="sans-serif" font-size="28" lengthAdjust="spacing" textLength="171.9648" x="1522" y="1127.7227">+email: String</text><text fill="#000000" font-family="sans-serif" font-size="28" lengthAdjust="spacing" textLength="218.6406" x="1522" y="1162.9414">+avatarUrl: String</text><text fill="#000000" font-family="sans-serif" font-size="28" lengthAdjust="spacing" textLength="226.4746" x="1522" y="1198.1602">+estActif: Boolean</text><text fill="#000000" font-family="sans-serif" font-size="28" lengthAdjust="spacing" textLength="313.6055" x="1522" y="1233.3789">+dateCreation: DateTime</text><line style="stroke:#3366CC;stroke-width:2;" x1="1512" x2="1845.6055" y1="1247.5313" y2="1247.5313"/><text fill="#000000" font-family="sans-serif" font-size="28" lengthAdjust="spacing" textLength="190.6406" x="1522" y="1284.5977">+sAuthentifier()</text></g><!--class Etudiant--><g class="entity" data-qualified-name="Etudiant" data-source-line="74" id="ent0010"><rect fill="#EEF5FF" height="307.3125" rx="5" ry="5" style="stroke:#3366CC;stroke-width:1;" width="367.0957" x="2277" y="532"/><ellipse cx="2415.3535" cy="564" fill="#ADD1B2" rx="22" ry="22" style="stroke:#181818;stroke-width:2;"/><path d="M2420.8848,555.75 Q2421.1973,555.3125 2421.5723,555.0938 Q2421.9473,554.875 2422.3848,554.875 Q2423.1348,554.875 2423.6035,555.4063 Q2424.0723,555.9063 2424.0723,557.125 L2424.0723,560.0313 Q2424.0723,561.25 2423.6035,561.7813 Q2423.1348,562.3125 2422.3848,562.3125 Q2421.6973,562.3125 2421.291,561.9063 Q2420.8848,561.5313 2420.666,560.5 Q2420.5723,559.7813 2420.1973,559.4063 Q2419.541,558.6563 2418.3223,558.2188 Q2417.1035,557.7813 2415.8535,557.7813 Q2414.3223,557.7813 2413.041,558.4375 Q2411.791,559.0938 2410.791,560.5938 Q2409.8223,562.0938 2409.8223,564.1563 L2409.8223,566.3438 Q2409.8223,568.8125 2411.6035,570.4688 Q2413.3848,572.0938 2416.5723,572.0938 Q2418.4473,572.0938 2419.7598,571.5938 Q2420.541,571.2813 2421.3848,570.4063 Q2421.916,569.875 2422.1973,569.7188 Q2422.5098,569.5625 2422.916,569.5625 Q2423.5723,569.5625 2424.0723,570.0938 Q2424.6035,570.5938 2424.6035,571.2813 Q2424.6035,571.9688 2423.916,572.7813 Q2422.916,573.9375 2421.3223,574.5938 Q2419.166,575.5 2416.5723,575.5 Q2413.541,575.5 2411.1348,574.25 Q2409.166,573.25 2407.791,571.125 Q2406.416,568.9688 2406.416,566.4063 L2406.416,564.0938 Q2406.416,561.4375 2407.6348,559.1563 Q2408.8848,556.8438 2411.0723,555.625 Q2413.2598,554.375 2415.7285,554.375 Q2417.1973,554.375 2418.4785,554.7188 Q2419.791,555.0313 2420.8848,555.75 Z " fill="#000000"/><text fill="#000000" font-family="sans-serif" font-size="20" lengthAdjust="spacing" textLength="73.3887" x="2456.3535" y="572.1836">Etudiant</text><line style="stroke:#3366CC;stroke-width:1;" x1="2279" x2="2642.0957" y1="596" y2="596"/><text fill="#000000" font-family="sans-serif" font-size="28" lengthAdjust="spacing" textLength="126.8477" x="2289" y="633.0664">+id: String</text><text fill="#000000" font-family="sans-serif" font-size="28" lengthAdjust="spacing" textLength="302.7363" x="2289" y="668.2852">+numeroEtudiant: String</text><text fill="#000000" font-family="sans-serif" font-size="28" lengthAdjust="spacing" textLength="187.5645" x="2289" y="703.5039">+niveau: String</text><line style="stroke:#3366CC;stroke-width:2;" x1="2279" x2="2642.0957" y1="717.6563" y2="717.6563"/><text fill="#000000" font-family="sans-serif" font-size="28" lengthAdjust="spacing" textLength="276.2676" x="2289" y="754.7227">+consulterCatalogue()</text><text fill="#000000" font-family="sans-serif" font-size="28" lengthAdjust="spacing" textLength="268.4473" x="2289" y="789.9414">+exprimerVoeu(sujet)</text><text fill="#000000" font-family="sans-serif" font-size="28" lengthAdjust="spacing" textLength="343.0957" x="2289" y="825.1602">+soumettreMemoire(fichier)</text></g><!--class Enseignant--><g class="entity" data-qualified-name="Enseignant" data-source-line="84" id="ent0011"><rect fill="#EEF5FF" height="448.1875" rx="5" ry="5" style="stroke:#3366CC;stroke-width:1;" width="378.0332" x="3080" y="1324"/><ellipse cx="3210.4775" cy="1356" fill="#ADD1B2" rx="22" ry="22" style="stroke:#181818;stroke-width:2;"/><path d="M3216.0088,1347.75 Q3216.3213,1347.3125 3216.6963,1347.0938 Q3217.0713,1346.875 3217.5088,1346.875 Q3218.2588,1346.875 3218.7275,1347.4063 Q3219.1963,1347.9063 3219.1963,1349.125 L3219.1963,1352.0313 Q3219.1963,1353.25 3218.7275,1353.7813 Q3218.2588,1354.3125 3217.5088,1354.3125 Q3216.8213,1354.3125 3216.415,1353.9063 Q3216.0088,1353.5313 3215.79,1352.5 Q3215.6963,1351.7813 3215.3213,1351.4063 Q3214.665,1350.6563 3213.4463,1350.2188 Q3212.2275,1349.7813 3210.9775,1349.7813 Q3209.4463,1349.7813 3208.165,1350.4375 Q3206.915,1351.0938 3205.915,1352.5938 Q3204.9463,1354.0938 3204.9463,1356.1563 L3204.9463,1358.3438 Q3204.9463,1360.8125 3206.7275,1362.4688 Q3208.5088,1364.0938 3211.6963,1364.0938 Q3213.5713,1364.0938 3214.8838,1363.5938 Q3215.665,1363.2813 3216.5088,1362.4063 Q3217.04,1361.875 3217.3213,1361.7188 Q3217.6338,1361.5625 3218.04,1361.5625 Q3218.6963,1361.5625 3219.1963,1362.0938 Q3219.7275,1362.5938 3219.7275,1363.2813 Q3219.7275,1363.9688 3219.04,1364.7813 Q3218.04,1365.9375 3216.4463,1366.5938 Q3214.29,1367.5 3211.6963,1367.5 Q3208.665,1367.5 3206.2588,1366.25 Q3204.29,1365.25 3202.915,1363.125 Q3201.54,1360.9688 3201.54,1358.4063 L3201.54,1356.0938 Q3201.54,1353.4375 3202.7588,1351.1563 Q3204.0088,1348.8438 3206.1963,1347.625 Q3208.3838,1346.375 3210.8525,1346.375 Q3212.3213,1346.375 3213.6025,1346.7188 Q3214.915,1347.0313 3216.0088,1347.75 Z " fill="#000000"/><text fill="#000000" font-family="sans-serif" font-size="20" lengthAdjust="spacing" textLength="100.0781" x="3251.4775" y="1364.1836">Enseignant</text><line style="stroke:#3366CC;stroke-width:1;" x1="3082" x2="3456.0332" y1="1388" y2="1388"/><text fill="#000000" font-family="sans-serif" font-size="28" lengthAdjust="spacing" textLength="126.8477" x="3092" y="1425.0664">+id: String</text><text fill="#000000" font-family="sans-serif" font-size="28" lengthAdjust="spacing" textLength="321.4531" x="3092" y="1460.2852">+grade: GradeEnseignant</text><text fill="#000000" font-family="sans-serif" font-size="28" lengthAdjust="spacing" textLength="262.2676" x="3092" y="1495.5039">+departement: String</text><text fill="#000000" font-family="sans-serif" font-size="28" lengthAdjust="spacing" textLength="324.502" x="3092" y="1530.7227">+statutDisponibilite: String</text><text fill="#000000" font-family="sans-serif" font-size="28" lengthAdjust="spacing" textLength="329.2324" x="3092" y="1565.9414">+indisponibleJusqua: Date</text><line style="stroke:#3366CC;stroke-width:2;" x1="3082" x2="3456.0332" y1="1580.0938" y2="1580.0938"/><text fill="#000000" font-family="sans-serif" font-size="28" lengthAdjust="spacing" textLength="268.4746" x="3092" y="1617.1602">+proposerSujet(sujet)</text><text fill="#000000" font-family="sans-serif" font-size="28" lengthAdjust="spacing" textLength="284.0332" x="3092" y="1652.3789">+validerSujet(decision)</text><text fill="#000000" font-family="sans-serif" font-size="28" lengthAdjust="spacing" textLength="344.75" x="3092" y="1687.5977">+soumettreEvaluation(note)</text><text fill="#000000" font-family="sans-serif" font-size="28" lengthAdjust="spacing" textLength="204.5859" x="3092" y="1722.8164">+confirmerJury()</text><text fill="#000000" font-family="sans-serif" font-size="28" lengthAdjust="spacing" textLength="354.0332" x="3092" y="1758.0352">+soumettreNotesJury(notes)</text></g><!--class Entreprise--><g class="entity" data-qualified-name="Entreprise" data-source-line="98" id="ent0012"><rect fill="#EEF5FF" height="377.75" rx="5" ry="5" style="stroke:#3366CC;stroke-width:1;" width="348.5566" x="3095" y="875"/><ellipse cx="3215.2021" cy="907" fill="#ADD1B2" rx="22" ry="22" style="stroke:#181818;stroke-width:2;"/><path d="M3220.7334,898.75 Q3221.0459,898.3125 3221.4209,898.0938 Q3221.7959,897.875 3222.2334,897.875 Q3222.9834,897.875 3223.4521,898.4063 Q3223.9209,898.9063 3223.9209,900.125 L3223.9209,903.0313 Q3223.9209,904.25 3223.4521,904.7813 Q3222.9834,905.3125 3222.2334,905.3125 Q3221.5459,905.3125 3221.1396,904.9063 Q3220.7334,904.5313 3220.5146,903.5 Q3220.4209,902.7813 3220.0459,902.4063 Q3219.3896,901.6563 3218.1709,901.2188 Q3216.9521,900.7813 3215.7021,900.7813 Q3214.1709,900.7813 3212.8896,901.4375 Q3211.6396,902.0938 3210.6396,903.5938 Q3209.6709,905.0938 3209.6709,907.1563 L3209.6709,909.3438 Q3209.6709,911.8125 3211.4521,913.4688 Q3213.2334,915.0938 3216.4209,915.0938 Q3218.2959,915.0938 3219.6084,914.5938 Q3220.3896,914.2813 3221.2334,913.4063 Q3221.7646,912.875 3222.0459,912.7188 Q3222.3584,912.5625 3222.7646,912.5625 Q3223.4209,912.5625 3223.9209,913.0938 Q3224.4521,913.5938 3224.4521,914.2813 Q3224.4521,914.9688 3223.7646,915.7813 Q3222.7646,916.9375 3221.1709,917.5938 Q3219.0146,918.5 3216.4209,918.5 Q3213.3896,918.5 3210.9834,917.25 Q3209.0146,916.25 3207.6396,914.125 Q3206.2646,911.9688 3206.2646,909.4063 L3206.2646,907.0938 Q3206.2646,904.4375 3207.4834,902.1563 Q3208.7334,899.8438 3210.9209,898.625 Q3213.1084,897.375 3215.5771,897.375 Q3217.0459,897.375 3218.3271,897.7188 Q3219.6396,898.0313 3220.7334,898.75 Z " fill="#000000"/><text fill="#000000" font-family="sans-serif" font-size="20" lengthAdjust="spacing" textLength="91.1523" x="3256.2021" y="915.1836">Entreprise</text><line style="stroke:#3366CC;stroke-width:1;" x1="3097" x2="3441.5566" y1="939" y2="939"/><text fill="#000000" font-family="sans-serif" font-size="28" lengthAdjust="spacing" textLength="126.8477" x="3107" y="976.0664">+id: String</text><text fill="#000000" font-family="sans-serif" font-size="28" lengthAdjust="spacing" textLength="287.1367" x="3107" y="1011.2852">+nomEntreprise: String</text><text fill="#000000" font-family="sans-serif" font-size="28" lengthAdjust="spacing" textLength="196.875" x="3107" y="1046.5039">+secteur: String</text><text fill="#000000" font-family="sans-serif" font-size="28" lengthAdjust="spacing" textLength="240.4609" x="3107" y="1081.7227">+description: String</text><text fill="#000000" font-family="sans-serif" font-size="28" lengthAdjust="spacing" textLength="268.4609" x="3107" y="1116.9414">+emailContact: String</text><text fill="#000000" font-family="sans-serif" font-size="28" lengthAdjust="spacing" textLength="324.5566" x="3107" y="1152.1602">+telephoneContact: String</text><text fill="#000000" font-family="sans-serif" font-size="28" lengthAdjust="spacing" textLength="266.957" x="3107" y="1187.3789">+estVerifiee: Boolean</text><line style="stroke:#3366CC;stroke-width:2;" x1="3097" x2="3441.5566" y1="1201.5313" y2="1201.5313"/><text fill="#000000" font-family="sans-serif" font-size="28" lengthAdjust="spacing" textLength="268.4746" x="3107" y="1238.5977">+proposerSujet(sujet)</text></g><!--class AnneeAcademique--><g class="entity" data-qualified-name="AnneeAcademique" data-source-line="111" id="ent0013"><rect fill="#EEF5FF" height="307.3125" rx="5" ry="5" style="stroke:#3366CC;stroke-width:1;" width="440.2949" x="3750" y="66"/><ellipse cx="3877.1406" cy="98" fill="#ADD1B2" rx="22" ry="22" style="stroke:#181818;stroke-width:2;"/><path d="M3882.6719,89.75 Q3882.9844,89.3125 3883.3594,89.0938 Q3883.7344,88.875 3884.1719,88.875 Q3884.9219,88.875 3885.3906,89.4063 Q3885.8594,89.9063 3885.8594,91.125 L3885.8594,94.0313 Q3885.8594,95.25 3885.3906,95.7813 Q3884.9219,96.3125 3884.1719,96.3125 Q3883.4844,96.3125 3883.0781,95.9063 Q3882.6719,95.5313 3882.4531,94.5 Q3882.3594,93.7813 3881.9844,93.4063 Q3881.3281,92.6563 3880.1094,92.2188 Q3878.8906,91.7813 3877.6406,91.7813 Q3876.1094,91.7813 3874.8281,92.4375 Q3873.5781,93.0938 3872.5781,94.5938 Q3871.6094,96.0938 3871.6094,98.1563 L3871.6094,100.3438 Q3871.6094,102.8125 3873.3906,104.4688 Q3875.1719,106.0938 3878.3594,106.0938 Q3880.2344,106.0938 3881.5469,105.5938 Q3882.3281,105.2813 3883.1719,104.4063 Q3883.7031,103.875 3883.9844,103.7188 Q3884.2969,103.5625 3884.7031,103.5625 Q3885.3594,103.5625 3885.8594,104.0938 Q3886.3906,104.5938 3886.3906,105.2813 Q3886.3906,105.9688 3885.7031,106.7813 Q3884.7031,107.9375 3883.1094,108.5938 Q3880.9531,109.5 3878.3594,109.5 Q3875.3281,109.5 3872.9219,108.25 Q3870.9531,107.25 3869.5781,105.125 Q3868.2031,102.9688 3868.2031,100.4063 L3868.2031,98.0938 Q3868.2031,95.4375 3869.4219,93.1563 Q3870.6719,90.8438 3872.8594,89.625 Q3875.0469,88.375 3877.5156,88.375 Q3878.9844,88.375 3880.2656,88.7188 Q3881.5781,89.0313 3882.6719,89.75 Z " fill="#000000"/><text fill="#000000" font-family="sans-serif" font-size="20" lengthAdjust="spacing" textLength="169.0137" x="3918.1406" y="106.1836">AnneeAcademique</text><line style="stroke:#3366CC;stroke-width:1;" x1="3752" x2="4188.2949" y1="130" y2="130"/><text fill="#000000" font-family="sans-serif" font-size="28" lengthAdjust="spacing" textLength="126.8477" x="3762" y="167.0664">+id: String</text><text fill="#000000" font-family="sans-serif" font-size="28" lengthAdjust="spacing" textLength="176.6543" x="3762" y="202.2852">+libelle: String</text><text fill="#000000" font-family="sans-serif" font-size="28" lengthAdjust="spacing" textLength="173.5371" x="3762" y="237.5039">+statut: String</text><text fill="#000000" font-family="sans-serif" font-size="28" lengthAdjust="spacing" textLength="416.2949" x="3762" y="272.7227">+ouvertureSoumission: DateTime</text><text fill="#000000" font-family="sans-serif" font-size="28" lengthAdjust="spacing" textLength="382.0469" x="3762" y="307.9414">+clotureSoumission: DateTime</text><text fill="#000000" font-family="sans-serif" font-size="28" lengthAdjust="spacing" textLength="251.3711" x="3762" y="343.1602">+maxVoeux: Integer</text><line style="stroke:#3366CC;stroke-width:1;" x1="3752" x2="4188.2949" y1="357.3125" y2="357.3125"/></g><!--class Promotion--><g class="entity" data-qualified-name="Promotion" data-source-line="120" id="ent0014"><rect fill="#EEF5FF" height="166.4375" rx="5" ry="5" style="stroke:#3366CC;stroke-width:1;" width="200.6543" x="3169" y="331"/><ellipse cx="3219.4759" cy="363" fill="#ADD1B2" rx="22" ry="22" style="stroke:#181818;stroke-width:2;"/><path d="M3225.0071,354.75 Q3225.3196,354.3125 3225.6946,354.0938 Q3226.0696,353.875 3226.5071,353.875 Q3227.2571,353.875 3227.7259,354.4063 Q3228.1946,354.9063 3228.1946,356.125 L3228.1946,359.0313 Q3228.1946,360.25 3227.7259,360.7813 Q3227.2571,361.3125 3226.5071,361.3125 Q3225.8196,361.3125 3225.4134,360.9063 Q3225.0071,360.5313 3224.7884,359.5 Q3224.6946,358.7813 3224.3196,358.4063 Q3223.6634,357.6563 3222.4446,357.2188 Q3221.2259,356.7813 3219.9759,356.7813 Q3218.4446,356.7813 3217.1634,357.4375 Q3215.9134,358.0938 3214.9134,359.5938 Q3213.9446,361.0938 3213.9446,363.1563 L3213.9446,365.3438 Q3213.9446,367.8125 3215.7259,369.4688 Q3217.5071,371.0938 3220.6946,371.0938 Q3222.5696,371.0938 3223.8821,370.5938 Q3224.6634,370.2813 3225.5071,369.4063 Q3226.0384,368.875 3226.3196,368.7188 Q3226.6321,368.5625 3227.0384,368.5625 Q3227.6946,368.5625 3228.1946,369.0938 Q3228.7259,369.5938 3228.7259,370.2813 Q3228.7259,370.9688 3228.0384,371.7813 Q3227.0384,372.9375 3225.4446,373.5938 Q3223.2884,374.5 3220.6946,374.5 Q3217.6634,374.5 3215.2571,373.25 Q3213.2884,372.25 3211.9134,370.125 Q3210.5384,367.9688 3210.5384,365.4063 L3210.5384,363.0938 Q3210.5384,360.4375 3211.7571,358.1563 Q3213.0071,355.8438 3215.1946,354.625 Q3217.3821,353.375 3219.8509,353.375 Q3221.3196,353.375 3222.6009,353.7188 Q3223.9134,354.0313 3225.0071,354.75 Z " fill="#000000"/><text fill="#000000" font-family="sans-serif" font-size="20" lengthAdjust="spacing" textLength="91.1523" x="3252.0261" y="371.1836">Promotion</text><line style="stroke:#3366CC;stroke-width:1;" x1="3171" x2="3367.6543" y1="395" y2="395"/><text fill="#000000" font-family="sans-serif" font-size="28" lengthAdjust="spacing" textLength="126.8477" x="3181" y="432.0664">+id: String</text><text fill="#000000" font-family="sans-serif" font-size="28" lengthAdjust="spacing" textLength="176.6543" x="3181" y="467.2852">+libelle: String</text><line style="stroke:#3366CC;stroke-width:1;" x1="3171" x2="3367.6543" y1="481.4375" y2="481.4375"/></g><!--class Specialite--><g class="entity" data-qualified-name="Specialite" data-source-line="125" id="ent0015"><rect fill="#EEF5FF" height="236.875" rx="5" ry="5" style="stroke:#3366CC;stroke-width:1;" width="262.9434" x="3138" y="568"/><ellipse cx="3218.5011" cy="600" fill="#ADD1B2" rx="22" ry="22" style="stroke:#181818;stroke-width:2;"/><path d="M3224.0323,591.75 Q3224.3448,591.3125 3224.7198,591.0938 Q3225.0948,590.875 3225.5323,590.875 Q3226.2823,590.875 3226.7511,591.4063 Q3227.2198,591.9063 3227.2198,593.125 L3227.2198,596.0313 Q3227.2198,597.25 3226.7511,597.7813 Q3226.2823,598.3125 3225.5323,598.3125 Q3224.8448,598.3125 3224.4386,597.9063 Q3224.0323,597.5313 3223.8136,596.5 Q3223.7198,595.7813 3223.3448,595.4063 Q3222.6886,594.6563 3221.4698,594.2188 Q3220.2511,593.7813 3219.0011,593.7813 Q3217.4698,593.7813 3216.1886,594.4375 Q3214.9386,595.0938 3213.9386,596.5938 Q3212.9698,598.0938 3212.9698,600.1563 L3212.9698,602.3438 Q3212.9698,604.8125 3214.7511,606.4688 Q3216.5323,608.0938 3219.7198,608.0938 Q3221.5948,608.0938 3222.9073,607.5938 Q3223.6886,607.2813 3224.5323,606.4063 Q3225.0636,605.875 3225.3448,605.7188 Q3225.6573,605.5625 3226.0636,605.5625 Q3226.7198,605.5625 3227.2198,606.0938 Q3227.7511,606.5938 3227.7511,607.2813 Q3227.7511,607.9688 3227.0636,608.7813 Q3226.0636,609.9375 3224.4698,610.5938 Q3222.3136,611.5 3219.7198,611.5 Q3216.6886,611.5 3214.2823,610.25 Q3212.3136,609.25 3210.9386,607.125 Q3209.5636,604.9688 3209.5636,602.4063 L3209.5636,600.0938 Q3209.5636,597.4375 3210.7823,595.1563 Q3212.0323,592.8438 3214.2198,591.625 Q3216.4073,590.375 3218.8761,590.375 Q3220.3448,590.375 3221.6261,590.7188 Q3222.9386,591.0313 3224.0323,591.75 Z " fill="#000000"/><text fill="#000000" font-family="sans-serif" font-size="20" lengthAdjust="spacing" textLength="86.7188" x="3257.7235" y="608.1836">Specialite</text><line style="stroke:#3366CC;stroke-width:1;" x1="3140" x2="3398.9434" y1="632" y2="632"/><text fill="#000000" font-family="sans-serif" font-size="28" lengthAdjust="spacing" textLength="126.8477" x="3150" y="669.0664">+id: String</text><text fill="#000000" font-family="sans-serif" font-size="28" lengthAdjust="spacing" textLength="159.5234" x="3150" y="704.2852">+nom: String</text><text fill="#000000" font-family="sans-serif" font-size="28" lengthAdjust="spacing" textLength="165.7715" x="3150" y="739.5039">+code: String</text><text fill="#000000" font-family="sans-serif" font-size="28" lengthAdjust="spacing" textLength="238.9434" x="3150" y="774.7227">+typeAnnee: String</text><line style="stroke:#3366CC;stroke-width:1;" x1="3140" x2="3398.9434" y1="788.875" y2="788.875"/></g><!--class Domaine--><g class="entity" data-qualified-name="Domaine" data-source-line="132" id="ent0016"><rect fill="#EEF5FF" height="166.4375" rx="5" ry="5" style="stroke:#3366CC;stroke-width:1;" width="183.5234" x="3878" y="515"/><ellipse cx="3925.768" cy="547" fill="#ADD1B2" rx="22" ry="22" style="stroke:#181818;stroke-width:2;"/><path d="M3931.2992,538.75 Q3931.6117,538.3125 3931.9867,538.0938 Q3932.3617,537.875 3932.7992,537.875 Q3933.5492,537.875 3934.018,538.4063 Q3934.4867,538.9063 3934.4867,540.125 L3934.4867,543.0313 Q3934.4867,544.25 3934.018,544.7813 Q3933.5492,545.3125 3932.7992,545.3125 Q3932.1117,545.3125 3931.7055,544.9063 Q3931.2992,544.5313 3931.0805,543.5 Q3930.9867,542.7813 3930.6117,542.4063 Q3929.9555,541.6563 3928.7367,541.2188 Q3927.518,540.7813 3926.268,540.7813 Q3924.7367,540.7813 3923.4555,541.4375 Q3922.2055,542.0938 3921.2055,543.5938 Q3920.2367,545.0938 3920.2367,547.1563 L3920.2367,549.3438 Q3920.2367,551.8125 3922.018,553.4688 Q3923.7992,555.0938 3926.9867,555.0938 Q3928.8617,555.0938 3930.1742,554.5938 Q3930.9555,554.2813 3931.7992,553.4063 Q3932.3305,552.875 3932.6117,552.7188 Q3932.9242,552.5625 3933.3305,552.5625 Q3933.9867,552.5625 3934.4867,553.0938 Q3935.018,553.5938 3935.018,554.2813 Q3935.018,554.9688 3934.3305,555.7813 Q3933.3305,556.9375 3931.7367,557.5938 Q3929.5805,558.5 3926.9867,558.5 Q3923.9555,558.5 3921.5492,557.25 Q3919.5805,556.25 3918.2055,554.125 Q3916.8305,551.9688 3916.8305,549.4063 L3916.8305,547.0938 Q3916.8305,544.4375 3918.0492,542.1563 Q3919.2992,539.8438 3921.4867,538.625 Q3923.6742,537.375 3926.143,537.375 Q3927.6117,537.375 3928.893,537.7188 Q3930.2055,538.0313 3931.2992,538.75 Z " fill="#000000"/><text fill="#000000" font-family="sans-serif" font-size="20" lengthAdjust="spacing" textLength="80.0391" x="3957.7164" y="555.1836">Domaine</text><line style="stroke:#3366CC;stroke-width:1;" x1="3880" x2="4059.5234" y1="579" y2="579"/><text fill="#000000" font-family="sans-serif" font-size="28" lengthAdjust="spacing" textLength="126.8477" x="3890" y="616.0664">+id: String</text><text fill="#000000" font-family="sans-serif" font-size="28" lengthAdjust="spacing" textLength="159.5234" x="3890" y="651.2852">+nom: String</text><line style="stroke:#3366CC;stroke-width:1;" x1="3880" x2="4059.5234" y1="665.4375" y2="665.4375"/></g><!--class SujetPFE--><g class="entity" data-qualified-name="SujetPFE" data-source-line="138" id="ent0017"><rect fill="#EEF5FF" height="448.1875" rx="5" ry="5" style="stroke:#3366CC;stroke-width:1;" width="533.7559" x="2194" y="14"/><ellipse cx="2410.1367" cy="46" fill="#ADD1B2" rx="22" ry="22" style="stroke:#181818;stroke-width:2;"/><path d="M2415.668,37.75 Q2415.9805,37.3125 2416.3555,37.0938 Q2416.7305,36.875 2417.168,36.875 Q2417.918,36.875 2418.3867,37.4063 Q2418.8555,37.9063 2418.8555,39.125 L2418.8555,42.0313 Q2418.8555,43.25 2418.3867,43.7813 Q2417.918,44.3125 2417.168,44.3125 Q2416.4805,44.3125 2416.0742,43.9063 Q2415.668,43.5313 2415.4492,42.5 Q2415.3555,41.7813 2414.9805,41.4063 Q2414.3242,40.6563 2413.1055,40.2188 Q2411.8867,39.7813 2410.6367,39.7813 Q2409.1055,39.7813 2407.8242,40.4375 Q2406.5742,41.0938 2405.5742,42.5938 Q2404.6055,44.0938 2404.6055,46.1563 L2404.6055,48.3438 Q2404.6055,50.8125 2406.3867,52.4688 Q2408.168,54.0938 2411.3555,54.0938 Q2413.2305,54.0938 2414.543,53.5938 Q2415.3242,53.2813 2416.168,52.4063 Q2416.6992,51.875 2416.9805,51.7188 Q2417.293,51.5625 2417.6992,51.5625 Q2418.3555,51.5625 2418.8555,52.0938 Q2419.3867,52.5938 2419.3867,53.2813 Q2419.3867,53.9688 2418.6992,54.7813 Q2417.6992,55.9375 2416.1055,56.5938 Q2413.9492,57.5 2411.3555,57.5 Q2408.3242,57.5 2405.918,56.25 Q2403.9492,55.25 2402.5742,53.125 Q2401.1992,50.9688 2401.1992,48.4063 L2401.1992,46.0938 Q2401.1992,43.4375 2402.418,41.1563 Q2403.668,38.8438 2405.8555,37.625 Q2408.043,36.375 2410.5117,36.375 Q2411.9805,36.375 2413.2617,36.7188 Q2414.5742,37.0313 2415.668,37.75 Z " fill="#000000"/><text fill="#000000" font-family="sans-serif" font-size="20" lengthAdjust="spacing" textLength="84.4824" x="2451.1367" y="54.1836">SujetPFE</text><line style="stroke:#3366CC;stroke-width:1;" x1="2196" x2="2725.7559" y1="78" y2="78"/><text fill="#000000" font-family="sans-serif" font-size="28" lengthAdjust="spacing" textLength="126.8477" x="2206" y="115.0664">+id: String</text><text fill="#000000" font-family="sans-serif" font-size="28" lengthAdjust="spacing" textLength="151.7305" x="2206" y="150.2852">+titre: String</text><text fill="#000000" font-family="sans-serif" font-size="28" lengthAdjust="spacing" textLength="240.4609" x="2206" y="185.5039">+description: String</text><text fill="#000000" font-family="sans-serif" font-size="28" lengthAdjust="spacing" textLength="458.3633" x="2206" y="220.7227">+typeGroupement: TypeGroupement</text><text fill="#000000" font-family="sans-serif" font-size="28" lengthAdjust="spacing" textLength="279.3848" x="2206" y="255.9414">+roleProposant: String</text><text fill="#000000" font-family="sans-serif" font-size="28" lengthAdjust="spacing" textLength="237.3711" x="2206" y="291.1602">+statut: StatutSujet</text><text fill="#000000" font-family="sans-serif" font-size="28" lengthAdjust="spacing" textLength="509.7559" x="2206" y="326.3789">+decisionValidateur1: DecisionValidateur</text><text fill="#000000" font-family="sans-serif" font-size="28" lengthAdjust="spacing" textLength="408.543" x="2206" y="361.5977">+commentaireValidateur1: String</text><text fill="#000000" font-family="sans-serif" font-size="28" lengthAdjust="spacing" textLength="509.7559" x="2206" y="396.8164">+decisionValidateur2: DecisionValidateur</text><text fill="#000000" font-family="sans-serif" font-size="28" lengthAdjust="spacing" textLength="408.543" x="2206" y="432.0352">+commentaireValidateur2: String</text><line style="stroke:#3366CC;stroke-width:1;" x1="2196" x2="2725.7559" y1="446.1875" y2="446.1875"/></g><!--class Voeu--><g class="entity" data-qualified-name="Voeu" data-source-line="151" id="ent0018"><rect fill="#EEF5FF" height="201.6563" rx="5" ry="5" style="stroke:#3366CC;stroke-width:1;" width="337.6055" x="1510" y="239"/><ellipse cx="1646.9482" cy="271" fill="#ADD1B2" rx="22" ry="22" style="stroke:#181818;stroke-width:2;"/><path d="M1652.4795,262.75 Q1652.792,262.3125 1653.167,262.0938 Q1653.542,261.875 1653.9795,261.875 Q1654.7295,261.875 1655.1982,262.4063 Q1655.667,262.9063 1655.667,264.125 L1655.667,267.0313 Q1655.667,268.25 1655.1982,268.7813 Q1654.7295,269.3125 1653.9795,269.3125 Q1653.292,269.3125 1652.8857,268.9063 Q1652.4795,268.5313 1652.2607,267.5 Q1652.167,266.7813 1651.792,266.4063 Q1651.1357,265.6563 1649.917,265.2188 Q1648.6982,264.7813 1647.4482,264.7813 Q1645.917,264.7813 1644.6357,265.4375 Q1643.3857,266.0938 1642.3857,267.5938 Q1641.417,269.0938 1641.417,271.1563 L1641.417,273.3438 Q1641.417,275.8125 1643.1982,277.4688 Q1644.9795,279.0938 1648.167,279.0938 Q1650.042,279.0938 1651.3545,278.5938 Q1652.1357,278.2813 1652.9795,277.4063 Q1653.5107,276.875 1653.792,276.7188 Q1654.1045,276.5625 1654.5107,276.5625 Q1655.167,276.5625 1655.667,277.0938 Q1656.1982,277.5938 1656.1982,278.2813 Q1656.1982,278.9688 1655.5107,279.7813 Q1654.5107,280.9375 1652.917,281.5938 Q1650.7607,282.5 1648.167,282.5 Q1645.1357,282.5 1642.7295,281.25 Q1640.7607,280.25 1639.3857,278.125 Q1638.0107,275.9688 1638.0107,273.4063 L1638.0107,271.0938 Q1638.0107,268.4375 1639.2295,266.1563 Q1640.4795,263.8438 1642.667,262.625 Q1644.8545,261.375 1647.3232,261.375 Q1648.792,261.375 1650.0732,261.7188 Q1651.3857,262.0313 1652.4795,262.75 Z " fill="#000000"/><text fill="#000000" font-family="sans-serif" font-size="20" lengthAdjust="spacing" textLength="46.709" x="1687.9482" y="279.1836">Voeu</text><line style="stroke:#3366CC;stroke-width:1;" x1="1512" x2="1845.6055" y1="303" y2="303"/><text fill="#000000" font-family="sans-serif" font-size="28" lengthAdjust="spacing" textLength="126.8477" x="1522" y="340.0664">+id: String</text><text fill="#000000" font-family="sans-serif" font-size="28" lengthAdjust="spacing" textLength="173.5371" x="1522" y="375.2852">+statut: String</text><text fill="#000000" font-family="sans-serif" font-size="28" lengthAdjust="spacing" textLength="313.6055" x="1522" y="410.5039">+dateCreation: DateTime</text><line style="stroke:#3366CC;stroke-width:1;" x1="1512" x2="1845.6055" y1="424.6563" y2="424.6563"/></g><!--class AffectationPFE--><g class="entity" data-qualified-name="AffectationPFE" data-source-line="158" id="ent0019"><rect fill="#EEF5FF" height="236.875" rx="5" ry="5" style="stroke:#3366CC;stroke-width:1;" width="329.8535" x="1514" y="614"/><ellipse cx="1603.7275" cy="646" fill="#ADD1B2" rx="22" ry="22" style="stroke:#181818;stroke-width:2;"/><path d="M1609.2588,637.75 Q1609.5713,637.3125 1609.9463,637.0938 Q1610.3213,636.875 1610.7588,636.875 Q1611.5088,636.875 1611.9775,637.4063 Q1612.4463,637.9063 1612.4463,639.125 L1612.4463,642.0313 Q1612.4463,643.25 1611.9775,643.7813 Q1611.5088,644.3125 1610.7588,644.3125 Q1610.0713,644.3125 1609.665,643.9063 Q1609.2588,643.5313 1609.04,642.5 Q1608.9463,641.7813 1608.5713,641.4063 Q1607.915,640.6563 1606.6963,640.2188 Q1605.4775,639.7813 1604.2275,639.7813 Q1602.6963,639.7813 1601.415,640.4375 Q1600.165,641.0938 1599.165,642.5938 Q1598.1963,644.0938 1598.1963,646.1563 L1598.1963,648.3438 Q1598.1963,650.8125 1599.9775,652.4688 Q1601.7588,654.0938 1604.9463,654.0938 Q1606.8213,654.0938 1608.1338,653.5938 Q1608.915,653.2813 1609.7588,652.4063 Q1610.29,651.875 1610.5713,651.7188 Q1610.8838,651.5625 1611.29,651.5625 Q1611.9463,651.5625 1612.4463,652.0938 Q1612.9775,652.5938 1612.9775,653.2813 Q1612.9775,653.9688 1612.29,654.7813 Q1611.29,655.9375 1609.6963,656.5938 Q1607.54,657.5 1604.9463,657.5 Q1601.915,657.5 1599.5088,656.25 Q1597.54,655.25 1596.165,653.125 Q1594.79,650.9688 1594.79,648.4063 L1594.79,646.0938 Q1594.79,643.4375 1596.0088,641.1563 Q1597.2588,638.8438 1599.4463,637.625 Q1601.6338,636.375 1604.1025,636.375 Q1605.5713,636.375 1606.8525,636.7188 Q1608.165,637.0313 1609.2588,637.75 Z " fill="#000000"/><text fill="#000000" font-family="sans-serif" font-size="20" lengthAdjust="spacing" textLength="133.3984" x="1644.7275" y="654.1836">AffectationPFE</text><line style="stroke:#3366CC;stroke-width:1;" x1="1516" x2="1841.8535" y1="678" y2="678"/><text fill="#000000" font-family="sans-serif" font-size="28" lengthAdjust="spacing" textLength="126.8477" x="1526" y="715.0664">+id: String</text><text fill="#000000" font-family="sans-serif" font-size="28" lengthAdjust="spacing" textLength="220.2266" x="1526" y="750.2852">+codePFE: String</text><text fill="#000000" font-family="sans-serif" font-size="28" lengthAdjust="spacing" textLength="245.082" x="1526" y="785.5039">+urlMemoire: String</text><text fill="#000000" font-family="sans-serif" font-size="28" lengthAdjust="spacing" textLength="305.8535" x="1526" y="820.7227">+statut: StatutAffectation</text><line style="stroke:#3366CC;stroke-width:1;" x1="1516" x2="1841.8535" y1="834.875" y2="834.875"/></g><!--class FicheSuivi--><g class="entity" data-qualified-name="FicheSuivi" data-source-line="165" id="ent0020"><rect fill="#EEF5FF" height="342.5313" rx="5" ry="5" style="stroke:#3366CC;stroke-width:1;" width="306.4883" x="919" y="561"/><ellipse cx="1017.6162" cy="593" fill="#ADD1B2" rx="22" ry="22" style="stroke:#181818;stroke-width:2;"/><path d="M1023.1475,584.75 Q1023.46,584.3125 1023.835,584.0938 Q1024.21,583.875 1024.6475,583.875 Q1025.3975,583.875 1025.8662,584.4063 Q1026.335,584.9063 1026.335,586.125 L1026.335,589.0313 Q1026.335,590.25 1025.8662,590.7813 Q1025.3975,591.3125 1024.6475,591.3125 Q1023.96,591.3125 1023.5537,590.9063 Q1023.1475,590.5313 1022.9287,589.5 Q1022.835,588.7813 1022.46,588.4063 Q1021.8037,587.6563 1020.585,587.2188 Q1019.3662,586.7813 1018.1162,586.7813 Q1016.585,586.7813 1015.3037,587.4375 Q1014.0537,588.0938 1013.0537,589.5938 Q1012.085,591.0938 1012.085,593.1563 L1012.085,595.3438 Q1012.085,597.8125 1013.8662,599.4688 Q1015.6475,601.0938 1018.835,601.0938 Q1020.71,601.0938 1022.0225,600.5938 Q1022.8037,600.2813 1023.6475,599.4063 Q1024.1787,598.875 1024.46,598.7188 Q1024.7725,598.5625 1025.1787,598.5625 Q1025.835,598.5625 1026.335,599.0938 Q1026.8662,599.5938 1026.8662,600.2813 Q1026.8662,600.9688 1026.1787,601.7813 Q1025.1787,602.9375 1023.585,603.5938 Q1021.4287,604.5 1018.835,604.5 Q1015.8037,604.5 1013.3975,603.25 Q1011.4287,602.25 1010.0537,600.125 Q1008.6787,597.9688 1008.6787,595.4063 L1008.6787,593.0938 Q1008.6787,590.4375 1009.8975,588.1563 Q1011.1475,585.8438 1013.335,584.625 Q1015.5225,583.375 1017.9912,583.375 Q1019.46,583.375 1020.7412,583.7188 Q1022.0537,584.0313 1023.1475,584.75 Z " fill="#000000"/><text fill="#000000" font-family="sans-serif" font-size="20" lengthAdjust="spacing" textLength="92.2559" x="1058.6162" y="601.1836">FicheSuivi</text><line style="stroke:#3366CC;stroke-width:1;" x1="921" x2="1223.4883" y1="625" y2="625"/><text fill="#000000" font-family="sans-serif" font-size="28" lengthAdjust="spacing" textLength="126.8477" x="931" y="662.0664">+id: String</text><text fill="#000000" font-family="sans-serif" font-size="28" lengthAdjust="spacing" textLength="249.8535" x="931" y="697.2852">+dateReunion: Date</text><text fill="#000000" font-family="sans-serif" font-size="28" lengthAdjust="spacing" textLength="190.6953" x="931" y="732.5039">+duree: Integer</text><text fill="#000000" font-family="sans-serif" font-size="28" lengthAdjust="spacing" textLength="262.2813" x="931" y="767.7227">+typeReunion: String</text><text fill="#000000" font-family="sans-serif" font-size="28" lengthAdjust="spacing" textLength="282.4883" x="931" y="802.9414">+sujetsAbordes: String</text><text fill="#000000" font-family="sans-serif" font-size="28" lengthAdjust="spacing" textLength="249.8125" x="931" y="838.1602">+observation: String</text><text fill="#000000" font-family="sans-serif" font-size="28" lengthAdjust="spacing" textLength="173.5371" x="931" y="873.3789">+statut: String</text><line style="stroke:#3366CC;stroke-width:1;" x1="921" x2="1223.4883" y1="887.5313" y2="887.5313"/></g><!--class JurySoutenance--><g class="entity" data-qualified-name="JurySoutenance" data-source-line="176" id="ent0021"><rect fill="#EEF5FF" height="201.6563" rx="5" ry="5" style="stroke:#3366CC;stroke-width:1;" width="387.4395" x="878" y="1127"/><ellipse cx="990.9492" cy="1159" fill="#ADD1B2" rx="22" ry="22" style="stroke:#181818;stroke-width:2;"/><path d="M996.4805,1150.75 Q996.793,1150.3125 997.168,1150.0938 Q997.543,1149.875 997.9805,1149.875 Q998.7305,1149.875 999.1992,1150.4063 Q999.668,1150.9063 999.668,1152.125 L999.668,1155.0313 Q999.668,1156.25 999.1992,1156.7813 Q998.7305,1157.3125 997.9805,1157.3125 Q997.293,1157.3125 996.8867,1156.9063 Q996.4805,1156.5313 996.2617,1155.5 Q996.168,1154.7813 995.793,1154.4063 Q995.1367,1153.6563 993.918,1153.2188 Q992.6992,1152.7813 991.4492,1152.7813 Q989.918,1152.7813 988.6367,1153.4375 Q987.3867,1154.0938 986.3867,1155.5938 Q985.418,1157.0938 985.418,1159.1563 L985.418,1161.3438 Q985.418,1163.8125 987.1992,1165.4688 Q988.9805,1167.0938 992.168,1167.0938 Q994.043,1167.0938 995.3555,1166.5938 Q996.1367,1166.2813 996.9805,1165.4063 Q997.5117,1164.875 997.793,1164.7188 Q998.1055,1164.5625 998.5117,1164.5625 Q999.168,1164.5625 999.668,1165.0938 Q1000.1992,1165.5938 1000.1992,1166.2813 Q1000.1992,1166.9688 999.5117,1167.7813 Q998.5117,1168.9375 996.918,1169.5938 Q994.7617,1170.5 992.168,1170.5 Q989.1367,1170.5 986.7305,1169.25 Q984.7617,1168.25 983.3867,1166.125 Q982.0117,1163.9688 982.0117,1161.4063 L982.0117,1159.0938 Q982.0117,1156.4375 983.2305,1154.1563 Q984.4805,1151.8438 986.668,1150.625 Q988.8555,1149.375 991.3242,1149.375 Q992.793,1149.375 994.0742,1149.7188 Q995.3867,1150.0313 996.4805,1150.75 Z " fill="#000000"/><text fill="#000000" font-family="sans-serif" font-size="20" lengthAdjust="spacing" textLength="144.541" x="1031.9492" y="1167.1836">JurySoutenance</text><line style="stroke:#3366CC;stroke-width:1;" x1="880" x2="1263.4395" y1="1191" y2="1191"/><text fill="#000000" font-family="sans-serif" font-size="28" lengthAdjust="spacing" textLength="126.8477" x="890" y="1228.0664">+id: String</text><text fill="#000000" font-family="sans-serif" font-size="28" lengthAdjust="spacing" textLength="363.4395" x="890" y="1263.2852">+presidentConfirme: Boolean</text><text fill="#000000" font-family="sans-serif" font-size="28" lengthAdjust="spacing" textLength="350.9434" x="890" y="1298.5039">+membreConfirme: Boolean</text><line style="stroke:#3366CC;stroke-width:1;" x1="880" x2="1263.4395" y1="1312.6563" y2="1312.6563"/></g><!--class Soutenance--><g class="entity" data-qualified-name="Soutenance" data-source-line="182" id="ent0022"><rect fill="#EEF5FF" height="342.5313" rx="5" ry="5" style="stroke:#3366CC;stroke-width:1;" width="399.9082" x="356" y="1057"/><ellipse cx="494.0752" cy="1089" fill="#ADD1B2" rx="22" ry="22" style="stroke:#181818;stroke-width:2;"/><path d="M499.6064,1080.75 Q499.9189,1080.3125 500.2939,1080.0938 Q500.6689,1079.875 501.1064,1079.875 Q501.8564,1079.875 502.3252,1080.4063 Q502.7939,1080.9063 502.7939,1082.125 L502.7939,1085.0313 Q502.7939,1086.25 502.3252,1086.7813 Q501.8564,1087.3125 501.1064,1087.3125 Q500.4189,1087.3125 500.0127,1086.9063 Q499.6064,1086.5313 499.3877,1085.5 Q499.2939,1084.7813 498.9189,1084.4063 Q498.2627,1083.6563 497.0439,1083.2188 Q495.8252,1082.7813 494.5752,1082.7813 Q493.0439,1082.7813 491.7627,1083.4375 Q490.5127,1084.0938 489.5127,1085.5938 Q488.5439,1087.0938 488.5439,1089.1563 L488.5439,1091.3438 Q488.5439,1093.8125 490.3252,1095.4688 Q492.1064,1097.0938 495.2939,1097.0938 Q497.1689,1097.0938 498.4814,1096.5938 Q499.2627,1096.2813 500.1064,1095.4063 Q500.6377,1094.875 500.9189,1094.7188 Q501.2314,1094.5625 501.6377,1094.5625 Q502.2939,1094.5625 502.7939,1095.0938 Q503.3252,1095.5938 503.3252,1096.2813 Q503.3252,1096.9688 502.6377,1097.7813 Q501.6377,1098.9375 500.0439,1099.5938 Q497.8877,1100.5 495.2939,1100.5 Q492.2627,1100.5 489.8564,1099.25 Q487.8877,1098.25 486.5127,1096.125 Q485.1377,1093.9688 485.1377,1091.4063 L485.1377,1089.0938 Q485.1377,1086.4375 486.3564,1084.1563 Q487.6064,1081.8438 489.7939,1080.625 Q491.9814,1079.375 494.4502,1079.375 Q495.9189,1079.375 497.2002,1079.7188 Q498.5127,1080.0313 499.6064,1080.75 Z " fill="#000000"/><text fill="#000000" font-family="sans-serif" font-size="20" lengthAdjust="spacing" textLength="106.7578" x="535.0752" y="1097.1836">Soutenance</text><line style="stroke:#3366CC;stroke-width:1;" x1="358" x2="753.9082" y1="1121" y2="1121"/><text fill="#000000" font-family="sans-serif" font-size="28" lengthAdjust="spacing" textLength="126.8477" x="368" y="1158.0664">+id: String</text><text fill="#000000" font-family="sans-serif" font-size="28" lengthAdjust="spacing" textLength="296.4883" x="368" y="1193.2852">+datePrevue: DateTime</text><text fill="#000000" font-family="sans-serif" font-size="28" lengthAdjust="spacing" textLength="162.6406" x="368" y="1228.5039">+salle: String</text><text fill="#000000" font-family="sans-serif" font-size="28" lengthAdjust="spacing" textLength="212.4883" x="368" y="1263.7227">+echeance: Date</text><text fill="#000000" font-family="sans-serif" font-size="28" lengthAdjust="spacing" textLength="173.5371" x="368" y="1298.9414">+statut: String</text><text fill="#000000" font-family="sans-serif" font-size="28" lengthAdjust="spacing" textLength="375.9082" x="368" y="1334.1602">+resultat: ResultatSoutenance</text><text fill="#000000" font-family="sans-serif" font-size="28" lengthAdjust="spacing" textLength="224.916" x="368" y="1369.3789">+noteFinale: Float</text><line style="stroke:#3366CC;stroke-width:1;" x1="358" x2="753.9082" y1="1383.5313" y2="1383.5313"/></g><!--class NoteJury--><g class="entity" data-qualified-name="NoteJury" data-source-line="192" id="ent0023"><rect fill="#EEF5FF" height="272.0938" rx="5" ry="5" style="stroke:#3366CC;stroke-width:1;" width="211.5234" x="18" y="1372"/><ellipse cx="78.3724" cy="1404" fill="#ADD1B2" rx="22" ry="22" style="stroke:#181818;stroke-width:2;"/><path d="M83.9036,1395.75 Q84.2161,1395.3125 84.5911,1395.0938 Q84.9661,1394.875 85.4036,1394.875 Q86.1536,1394.875 86.6224,1395.4063 Q87.0911,1395.9063 87.0911,1397.125 L87.0911,1400.0313 Q87.0911,1401.25 86.6224,1401.7813 Q86.1536,1402.3125 85.4036,1402.3125 Q84.7161,1402.3125 84.3099,1401.9063 Q83.9036,1401.5313 83.6849,1400.5 Q83.5911,1399.7813 83.2161,1399.4063 Q82.5599,1398.6563 81.3411,1398.2188 Q80.1224,1397.7813 78.8724,1397.7813 Q77.3411,1397.7813 76.0599,1398.4375 Q74.8099,1399.0938 73.8099,1400.5938 Q72.8411,1402.0938 72.8411,1404.1563 L72.8411,1406.3438 Q72.8411,1408.8125 74.6224,1410.4688 Q76.4036,1412.0938 79.5911,1412.0938 Q81.4661,1412.0938 82.7786,1411.5938 Q83.5599,1411.2813 84.4036,1410.4063 Q84.9349,1409.875 85.2161,1409.7188 Q85.5286,1409.5625 85.9349,1409.5625 Q86.5911,1409.5625 87.0911,1410.0938 Q87.6224,1410.5938 87.6224,1411.2813 Q87.6224,1411.9688 86.9349,1412.7813 Q85.9349,1413.9375 84.3411,1414.5938 Q82.1849,1415.5 79.5911,1415.5 Q76.5599,1415.5 74.1536,1414.25 Q72.1849,1413.25 70.8099,1411.125 Q69.4349,1408.9688 69.4349,1406.4063 L69.4349,1404.0938 Q69.4349,1401.4375 70.6536,1399.1563 Q71.9036,1396.8438 74.0911,1395.625 Q76.2786,1394.375 78.7474,1394.375 Q80.2161,1394.375 81.4974,1394.7188 Q82.8099,1395.0313 83.9036,1395.75 Z " fill="#000000"/><text fill="#000000" font-family="sans-serif" font-size="20" lengthAdjust="spacing" textLength="80.0293" x="113.1218" y="1412.1836">NoteJury</text><line style="stroke:#3366CC;stroke-width:1;" x1="20" x2="227.5234" y1="1436" y2="1436"/><text fill="#000000" font-family="sans-serif" font-size="28" lengthAdjust="spacing" textLength="126.8477" x="30" y="1473.0664">+id: String</text><text fill="#000000" font-family="sans-serif" font-size="28" lengthAdjust="spacing" textLength="187.5234" x="30" y="1508.2852">+critere1: Float</text><text fill="#000000" font-family="sans-serif" font-size="28" lengthAdjust="spacing" textLength="187.5234" x="30" y="1543.5039">+critere2: Float</text><text fill="#000000" font-family="sans-serif" font-size="28" lengthAdjust="spacing" textLength="187.5234" x="30" y="1578.7227">+critere3: Float</text><text fill="#000000" font-family="sans-serif" font-size="28" lengthAdjust="spacing" textLength="187.5234" x="30" y="1613.9414">+critere4: Float</text><line style="stroke:#3366CC;stroke-width:1;" x1="20" x2="227.5234" y1="1628.0938" y2="1628.0938"/></g><!--class EvaluationEncadrant--><g class="entity" data-qualified-name="EvaluationEncadrant" data-source-line="200" id="ent0024"><rect fill="#EEF5FF" height="166.4375" rx="5" ry="5" style="stroke:#3366CC;stroke-width:1;" width="248.5703" x="948" y="1413"/><ellipse cx="978" cy="1445" fill="#ADD1B2" rx="22" ry="22" style="stroke:#181818;stroke-width:2;"/><path d="M983.5313,1436.75 Q983.8438,1436.3125 984.2188,1436.0938 Q984.5938,1435.875 985.0313,1435.875 Q985.7813,1435.875 986.25,1436.4063 Q986.7188,1436.9063 986.7188,1438.125 L986.7188,1441.0313 Q986.7188,1442.25 986.25,1442.7813 Q985.7813,1443.3125 985.0313,1443.3125 Q984.3438,1443.3125 983.9375,1442.9063 Q983.5313,1442.5313 983.3125,1441.5 Q983.2188,1440.7813 982.8438,1440.4063 Q982.1875,1439.6563 980.9688,1439.2188 Q979.75,1438.7813 978.5,1438.7813 Q976.9688,1438.7813 975.6875,1439.4375 Q974.4375,1440.0938 973.4375,1441.5938 Q972.4688,1443.0938 972.4688,1445.1563 L972.4688,1447.3438 Q972.4688,1449.8125 974.25,1451.4688 Q976.0313,1453.0938 979.2188,1453.0938 Q981.0938,1453.0938 982.4063,1452.5938 Q983.1875,1452.2813 984.0313,1451.4063 Q984.5625,1450.875 984.8438,1450.7188 Q985.1563,1450.5625 985.5625,1450.5625 Q986.2188,1450.5625 986.7188,1451.0938 Q987.25,1451.5938 987.25,1452.2813 Q987.25,1452.9688 986.5625,1453.7813 Q985.5625,1454.9375 983.9688,1455.5938 Q981.8125,1456.5 979.2188,1456.5 Q976.1875,1456.5 973.7813,1455.25 Q971.8125,1454.25 970.4375,1452.125 Q969.0625,1449.9688 969.0625,1447.4063 L969.0625,1445.0938 Q969.0625,1442.4375 970.2813,1440.1563 Q971.5313,1437.8438 973.7188,1436.625 Q975.9063,1435.375 978.375,1435.375 Q979.8438,1435.375 981.125,1435.7188 Q982.4375,1436.0313 983.5313,1436.75 Z " fill="#000000"/><text fill="#000000" font-family="sans-serif" font-size="20" lengthAdjust="spacing" textLength="184.5703" x="1006" y="1453.1836">EvaluationEncadrant</text><line style="stroke:#3366CC;stroke-width:1;" x1="950" x2="1194.5703" y1="1477" y2="1477"/><text fill="#000000" font-family="sans-serif" font-size="28" lengthAdjust="spacing" textLength="126.8477" x="960" y="1514.0664">+id: String</text><text fill="#000000" font-family="sans-serif" font-size="28" lengthAdjust="spacing" textLength="187.5234" x="960" y="1549.2852">+critere5: Float</text><line style="stroke:#3366CC;stroke-width:1;" x1="950" x2="1194.5703" y1="1563.4375" y2="1563.4375"/></g><!--reverse link ProfilUtilisateur to Etudiant--><g class="link" data-entity-1="ent0009" data-entity-2="ent0010" data-link-type="extension" data-source-line="206" id="lnk25"><path codeLine="206" d="M1880.469,1001.2901 C2006.429,932.6301 2147.12,855.96 2276.5,785.46" fill="none" id="ProfilUtilisateur-backto-Etudiant" style="stroke:#3366CC;stroke-width:2;"/><polygon fill="none" points="1848.86,1018.52,1886.2123,1011.8265,1874.7257,990.7538,1848.86,1018.52" style="stroke:#3366CC;stroke-width:2;"/></g><!--reverse link ProfilUtilisateur to Enseignant--><g class="link" data-entity-1="ent0009" data-entity-2="ent0011" data-link-type="extension" data-source-line="207" id="lnk26"><path codeLine="207" d="M1884.3471,1114.9982 C2146.2271,1126.1982 2627.5,1170.44 3020,1354 C3040.26,1363.48 3060.36,1374.88 3079.82,1387.38" fill="none" id="ProfilUtilisateur-backto-Enseignant" style="stroke:#3366CC;stroke-width:2;"/><polygon fill="none" points="1848.38,1113.46,1883.8344,1126.9873,1884.8599,1103.0092,1848.38,1113.46" style="stroke:#3366CC;stroke-width:2;"/></g><!--reverse link ProfilUtilisateur to Entreprise--><g class="link" data-entity-1="ent0009" data-entity-2="ent0012" data-link-type="extension" data-source-line="208" id="lnk27"><path codeLine="208" d="M1883.5656,1170.909 C1903.4456,1175.529 1888.54,1171.3 1908,1174 C2007.5,1187.76 2033.68,1178.86 2134,1174 C2475.5,1157.46 2872.86,1113.04 3094.62,1085.98" fill="none" id="ProfilUtilisateur-backto-Entreprise" style="stroke:#3366CC;stroke-width:2;"/><polygon fill="none" points="1848.5,1162.76,1880.8492,1182.5976,1886.2819,1159.2205,1848.5,1162.76" style="stroke:#3366CC;stroke-width:2;"/></g><!--link Etudiant to Specialite--><g class="link" data-entity-1="ent0010" data-entity-2="ent0015" data-link-type="dependency" data-source-line="210" id="lnk28"><path codeLine="210" d="M2645.44,686 C2795.56,686 2992.58,686 3125.86,686" fill="none" id="Etudiant-to-Specialite" style="stroke:#3366CC;stroke-width:2;"/><polygon fill="#3366CC" points="3137.86,686,3119.86,678,3127.86,686,3119.86,694,3137.86,686" style="stroke:#3366CC;stroke-width:2;"/><text fill="#000000" font-family="sans-serif" font-size="26" lengthAdjust="spacing" textLength="137.3252" x="2836" y="678.9902">appartient &#224;</text><text fill="#000000" font-family="sans-serif" font-size="26" lengthAdjust="spacing" textLength="39.0254" x="2659.8122" y="714.1641">0..*</text><text fill="#000000" font-family="sans-serif" font-size="26" lengthAdjust="spacing" textLength="14.46" x="3107.8596" y="714.8303">1</text></g><!--link Etudiant to Promotion--><g class="link" data-entity-1="ent0010" data-entity-2="ent0014" data-link-type="dependency" data-source-line="211" id="lnk29"><path codeLine="211" d="M2645.16,657.4 C2755.96,636.64 2898.98,603.7 3020,556 C3071.3,535.78 3114.5405,512.4772 3158.5605,485.5772" fill="none" id="Etudiant-to-Promotion" style="stroke:#3366CC;stroke-width:2;"/><polygon fill="#3366CC" points="3168.8,479.32,3149.2693,481.8795,3160.2671,484.5343,3157.6122,495.5321,3168.8,479.32" style="stroke:#3366CC;stroke-width:2;"/><text fill="#000000" font-family="sans-serif" font-size="26" lengthAdjust="spacing" textLength="131.498" x="2839" y="548.9902">inscrit dans</text><text fill="#000000" font-family="sans-serif" font-size="26" lengthAdjust="spacing" textLength="39.0254" x="2660.1504" y="649.166">0..*</text><text fill="#000000" font-family="sans-serif" font-size="26" lengthAdjust="spacing" textLength="14.46" x="3138.3701" y="518.7827">1</text></g><!--link Promotion to AnneeAcademique--><g class="link" data-entity-1="ent0014" data-entity-2="ent0013" data-link-type="dependency" data-source-line="212" id="lnk30"><path codeLine="212" d="M3369.38,386.62 C3467.7,359.26 3610.5795,319.4777 3737.9795,284.0177" fill="none" id="Promotion-to-AnneeAcademique" style="stroke:#3366CC;stroke-width:2;"/><polygon fill="#3366CC" points="3749.54,280.8,3730.054,277.9195,3739.9062,283.4814,3734.3443,293.3336,3749.54,280.8" style="stroke:#3366CC;stroke-width:2;"/><text fill="#000000" font-family="sans-serif" font-size="26" lengthAdjust="spacing" textLength="130.0889" x="3539" y="292.9902">rattach&#233;e &#224;</text><text fill="#000000" font-family="sans-serif" font-size="26" lengthAdjust="spacing" textLength="39.0254" x="3385.4466" y="412.0989">0..*</text><text fill="#000000" font-family="sans-serif" font-size="26" lengthAdjust="spacing" textLength="14.46" x="3719.5525" y="313.2391">1</text></g><!--link Enseignant to Domaine--><g class="link" data-entity-1="ent0011" data-entity-2="ent0016" data-link-type="association" data-source-line="213" id="lnk31"><path codeLine="213" d="M3435.74,1323.46 C3586.88,1117.46 3802.62,823.42 3906.9,681.26" fill="none" id="Enseignant-Domaine" style="stroke:#3366CC;stroke-width:2;"/><text fill="#000000" font-family="sans-serif" font-size="26" lengthAdjust="spacing" textLength="169.1016" x="3520" y="978.9902">expertise dans</text><text fill="#000000" font-family="sans-serif" font-size="26" lengthAdjust="spacing" textLength="39.0254" x="3407.6996" y="1302.3063">0..*</text><text fill="#000000" font-family="sans-serif" font-size="26" lengthAdjust="spacing" textLength="39.0254" x="3855.4266" y="724.7122">0..*</text></g><!--link SujetPFE to AnneeAcademique--><g class="link" data-entity-1="ent0017" data-entity-2="ent0013" data-link-type="dependency" data-source-line="215" id="lnk32"><path codeLine="215" d="M2728.38,179.6 C2748.48,176.56 2768.52,173.96 2788,172 C3186.88,131.9 3290.58,137.78 3690,172 C3709.52,173.68 3717.8273,174.3986 3738.0273,177.1186" fill="none" id="SujetPFE-to-AnneeAcademique" style="stroke:#3366CC;stroke-width:2;"/><polygon fill="#3366CC" points="3749.92,178.72,3733.1486,168.3895,3740.0094,177.3855,3731.0134,184.2464,3749.92,178.72" style="stroke:#3366CC;stroke-width:2;"/><text fill="#000000" font-family="sans-serif" font-size="26" lengthAdjust="spacing" textLength="39.0254" x="2744.0761" y="204.2856">0..*</text><text fill="#000000" font-family="sans-serif" font-size="26" lengthAdjust="spacing" textLength="14.46" x="3719.2499" y="203.9048">1</text></g><!--link SujetPFE to Domaine--><g class="link" data-entity-1="ent0017" data-entity-2="ent0016" data-link-type="association" data-source-line="216" id="lnk33"><path codeLine="216" d="M2728.48,211.88 C3041.8,186.56 3539.3,165.4 3690,268 C3746.64,306.56 3709.66,354.62 3750,410 C3785.02,458.08 3834.58,502.08 3877.6,535.4" fill="none" id="SujetPFE-Domaine" style="stroke:#3366CC;stroke-width:2;"/><text fill="#000000" font-family="sans-serif" font-size="26" lengthAdjust="spacing" textLength="39.0254" x="2744.1816" y="238.3309">0..*</text><text fill="#000000" font-family="sans-serif" font-size="26" lengthAdjust="spacing" textLength="39.0254" x="3822.6569" y="555.2749">0..*</text></g><!--link SujetPFE to Enseignant--><g class="link" data-entity-1="ent0017" data-entity-2="ent0011" data-link-type="dependency" data-source-line="217" id="lnk34"><path codeLine="217" d="M2728.7,410.54 C2748.48,421.08 2768.36,431.02 2788,440 C2886.2,484.86 2952.66,427.62 3020,512 C3127.88,647.2 3020.64,1125.54 3080,1288 C3084.38,1300.02 3084.3102,1301.1403 3089.9702,1312.9403" fill="none" id="SujetPFE-to-Enseignant" style="stroke:#3366CC;stroke-width:2;"/><polygon fill="#3366CC" points="3095.16,1323.76,3094.5885,1304.0706,3090.8352,1314.7436,3080.1622,1310.9903,3095.16,1323.76" style="stroke:#3366CC;stroke-width:2;"/><text fill="#000000" font-family="sans-serif" font-size="26" lengthAdjust="spacing" textLength="228.3633" x="2790" y="432.9902">propos&#233; / valid&#233; par</text><text fill="#000000" font-family="sans-serif" font-size="26" lengthAdjust="spacing" textLength="39.0254" x="2743.5157" y="447.2651">0..*</text><text fill="#000000" font-family="sans-serif" font-size="26" lengthAdjust="spacing" textLength="14.46" x="3069.0241" y="1302.6264">1</text></g><!--link SujetPFE to Entreprise--><g class="link" data-entity-1="ent0017" data-entity-2="ent0012" data-link-type="dependency" data-source-line="218" id="lnk35"><path codeLine="218" d="M2728.78,302.76 C2866.9,337.56 3009.32,375.82 3020,388 C3153.6,540.38 2998.52,654.46 3080,840 C3085.2,851.82 3085.2054,853.1246 3091.8254,864.6046" fill="none" id="SujetPFE-to-Entreprise" style="stroke:#3366CC;stroke-width:2;"/><polygon fill="#3366CC" points="3097.82,875,3095.7584,855.4105,3092.8245,866.3371,3081.8978,863.4032,3097.82,875" style="stroke:#3366CC;stroke-width:2;"/><text fill="#000000" font-family="sans-serif" font-size="26" lengthAdjust="spacing" textLength="138.7598" x="2835" y="314.9902">propos&#233; par</text><text fill="#000000" font-family="sans-serif" font-size="26" lengthAdjust="spacing" textLength="39.0254" x="2743.5998" y="333.9277">0..*</text><text fill="#000000" font-family="sans-serif" font-size="26" lengthAdjust="spacing" textLength="43.3672" x="3039.9387" y="853.0531">0..1</text></g><!--link Voeu to Etudiant--><g class="link" data-entity-1="ent0018" data-entity-2="ent0010" data-link-type="dependency" data-source-line="220" id="lnk36"><path codeLine="220" d="M1848.86,414.66 C1974.82,470.68 2136.1554,542.4237 2265.5354,599.9637" fill="none" id="Voeu-to-Etudiant" style="stroke:#3366CC;stroke-width:2;"/><polygon fill="#3366CC" points="2276.5,604.84,2263.3041,590.2158,2267.3629,600.7764,2256.8023,604.8352,2276.5,604.84" style="stroke:#3366CC;stroke-width:2;"/><text fill="#000000" font-family="sans-serif" font-size="26" lengthAdjust="spacing" textLength="39.0254" x="1863.374" y="448.6315">0..*</text><text fill="#000000" font-family="sans-serif" font-size="26" lengthAdjust="spacing" textLength="14.46" x="2246.6979" y="626.4918">1</text></g><!--link Voeu to SujetPFE--><g class="link" data-entity-1="ent0018" data-entity-2="ent0017" data-link-type="dependency" data-source-line="221" id="lnk37"><path codeLine="221" d="M1848.86,318 C1949.36,304.82 2067.462,289.3412 2181.622,274.3612" fill="none" id="Voeu-to-SujetPFE" style="stroke:#3366CC;stroke-width:2;"/><polygon fill="#3366CC" points="2193.52,272.8,2174.6322,267.2099,2183.605,274.101,2176.7138,283.0739,2193.52,272.8" style="stroke:#3366CC;stroke-width:2;"/><text fill="#000000" font-family="sans-serif" font-size="26" lengthAdjust="spacing" textLength="39.0254" x="1863.374" y="344.5709">0..*</text><text fill="#000000" font-family="sans-serif" font-size="26" lengthAdjust="spacing" textLength="14.46" x="2163.672" y="302.742">1</text></g><!--link AffectationPFE to SujetPFE--><g class="link" data-entity-1="ent0019" data-entity-2="ent0017" data-link-type="dependency" data-source-line="223" id="lnk38"><path codeLine="223" d="M1844.1,628.44 C1945.24,564.22 2067.4295,486.6322 2183.4095,412.9922" fill="none" id="AffectationPFE-to-SujetPFE" style="stroke:#3366CC;stroke-width:2;"/><polygon fill="#3366CC" points="2193.54,406.56,2174.0561,409.4547,2185.0979,411.9202,2182.6324,422.962,2193.54,406.56" style="stroke:#3366CC;stroke-width:2;"/><text fill="#000000" font-family="sans-serif" font-size="26" lengthAdjust="spacing" textLength="39.0254" x="1859.9714" y="647.8982">0..*</text><text fill="#000000" font-family="sans-serif" font-size="26" lengthAdjust="spacing" textLength="14.46" x="2163.6931" y="444.235">1</text></g><!--link AffectationPFE to Etudiant--><g class="link" data-entity-1="ent0019" data-entity-2="ent0010" data-link-type="dependency" data-source-line="224" id="lnk39"><path codeLine="224" d="M1844.1,722.36 C1970.42,714.88 2133.4009,705.2478 2264.4009,697.5078" fill="none" id="AffectationPFE-to-Etudiant" style="stroke:#3366CC;stroke-width:2;"/><polygon fill="#3366CC" points="2276.38,696.8,2257.9395,689.8756,2266.3974,697.3898,2258.8832,705.8477,2276.38,696.8" style="stroke:#3366CC;stroke-width:2;"/><text fill="#000000" font-family="sans-serif" font-size="26" lengthAdjust="spacing" textLength="14.46" x="1859.9934" y="749.9286">1</text><text fill="#000000" font-family="sans-serif" font-size="26" lengthAdjust="spacing" textLength="43.3672" x="2217.4461" y="726.0672">1..3</text></g><!--link AffectationPFE to Enseignant--><g class="link" data-entity-1="ent0019" data-entity-2="ent0011" data-link-type="dependency" data-source-line="225" id="lnk40"><path codeLine="225" d="M1844.44,790.72 C2179.28,911.78 2920.26,1183.84 3020,1256 C3047.16,1275.66 3064.7938,1290.3761 3089.1338,1315.0561" fill="none" id="AffectationPFE-to-Enseignant" style="stroke:#3366CC;stroke-width:2;"/><polygon fill="#3366CC" points="3097.56,1323.6,3090.6166,1305.1666,3090.5381,1316.4801,3079.2247,1316.4016,3097.56,1323.6" style="stroke:#3366CC;stroke-width:2;"/><text fill="#000000" font-family="sans-serif" font-size="26" lengthAdjust="spacing" textLength="134.3926" x="2394" y="910.9902">superviseur</text><text fill="#000000" font-family="sans-serif" font-size="26" lengthAdjust="spacing" textLength="39.0254" x="1859.7625" y="823.8909">0..*</text><text fill="#000000" font-family="sans-serif" font-size="26" lengthAdjust="spacing" textLength="14.46" x="3086.526" y="1302.4557">1</text></g><!--link FicheSuivi to AffectationPFE--><g class="link" data-entity-1="ent0020" data-entity-2="ent0019" data-link-type="dependency" data-source-line="227" id="lnk41"><path codeLine="227" d="M1225.38,732 C1313.3,732 1412.08,732 1501.92,732" fill="none" id="FicheSuivi-to-AffectationPFE" style="stroke:#3366CC;stroke-width:2;"/><polygon fill="#3366CC" points="1513.92,732,1495.92,724,1503.92,732,1495.92,740,1513.92,732" style="stroke:#3366CC;stroke-width:2;"/><text fill="#000000" font-family="sans-serif" font-size="26" lengthAdjust="spacing" textLength="39.0254" x="1241.296" y="760.4732">0..*</text><text fill="#000000" font-family="sans-serif" font-size="26" lengthAdjust="spacing" textLength="14.46" x="1483.5475" y="760.507">1</text></g><!--link JurySoutenance to AffectationPFE--><g class="link" data-entity-1="ent0021" data-entity-2="ent0019" data-link-type="dependency" data-source-line="229" id="lnk42"><path codeLine="229" d="M1266.22,1180.26 C1332,1155.6 1401.2,1119.14 1450,1066 C1507.04,1003.9 1464.22,956.82 1510,886 C1517.92,873.74 1519.2331,870.9333 1529.0331,859.4933" fill="none" id="JurySoutenance-to-AffectationPFE" style="stroke:#3366CC;stroke-width:2;"/><polygon fill="#3366CC" points="1536.84,850.38,1519.0541,858.8454,1530.3343,857.9744,1531.2052,869.2546,1536.84,850.38" style="stroke:#3366CC;stroke-width:2;"/><text fill="#000000" font-family="sans-serif" font-size="26" lengthAdjust="spacing" textLength="14.46" x="1281.665" y="1204.8602">1</text><text fill="#000000" font-family="sans-serif" font-size="26" lengthAdjust="spacing" textLength="14.46" x="1520.4043" y="893.7373">1</text></g><!--link JurySoutenance to Enseignant--><g class="link" data-entity-1="ent0021" data-entity-2="ent0011" data-link-type="dependency" data-source-line="230" id="lnk43"><path codeLine="230" d="M1266,1280.58 C1341.58,1299.72 1429.4,1320.06 1510,1334 C2174.9,1449.08 2354.24,1382.1 3020,1492 C3039.52,1495.22 3048.0625,1496.6396 3068.2425,1500.7596" fill="none" id="JurySoutenance-to-Enseignant" style="stroke:#3366CC;stroke-width:2;"/><polygon fill="#3366CC" points="3080,1503.16,3063.9641,1491.721,3070.2021,1501.1596,3060.7635,1507.3977,3080,1503.16" style="stroke:#3366CC;stroke-width:2;"/><text fill="#000000" font-family="sans-serif" font-size="26" lengthAdjust="spacing" textLength="223.9834" x="1910" y="1382.9902">pr&#233;sident / membre</text><text fill="#000000" font-family="sans-serif" font-size="26" lengthAdjust="spacing" textLength="39.0254" x="1281.7004" y="1312.645">0..*</text><text fill="#000000" font-family="sans-serif" font-size="26" lengthAdjust="spacing" textLength="14.46" x="3049.7864" y="1527.7833">1</text></g><!--link Soutenance to AffectationPFE--><g class="link" data-entity-1="ent0022" data-entity-2="ent0019" data-link-type="dependency" data-source-line="232" id="lnk44"><path codeLine="232" d="M756.56,1142.74 C796.68,1125.76 838.64,1108.18 878,1092 C1049.6,1021.48 1096.68,1013.86 1266,938 C1348.68,900.96 1428.1388,861.7492 1502.8988,823.4692" fill="none" id="Soutenance-to-AffectationPFE" style="stroke:#3366CC;stroke-width:2;"/><polygon fill="#3366CC" points="1513.58,818,1493.9121,819.083,1504.679,822.5577,1501.2043,833.3246,1513.58,818" style="stroke:#3366CC;stroke-width:2;"/><text fill="#000000" font-family="sans-serif" font-size="26" lengthAdjust="spacing" textLength="14.46" x="771.8229" y="1164.6503">1</text><text fill="#000000" font-family="sans-serif" font-size="26" lengthAdjust="spacing" textLength="14.46" x="1483.713" y="854.3854">1</text></g><!--link Soutenance to JurySoutenance--><g class="link" data-entity-1="ent0022" data-entity-2="ent0021" data-link-type="dependency" data-source-line="233" id="lnk45"><path codeLine="233" d="M756.68,1228 C796.32,1228 825.88,1228 865.32,1228" fill="none" id="Soutenance-to-JurySoutenance" style="stroke:#3366CC;stroke-width:2;"/><polygon fill="#3366CC" points="877.32,1228,859.32,1220,867.32,1228,859.32,1236,877.32,1228" style="stroke:#3366CC;stroke-width:2;"/><text fill="#000000" font-family="sans-serif" font-size="26" lengthAdjust="spacing" textLength="39.0254" x="772.1655" y="1256.1213">0..*</text><text fill="#000000" font-family="sans-serif" font-size="26" lengthAdjust="spacing" textLength="14.46" x="847.2893" y="1256.3069">1</text></g><!--link NoteJury to Soutenance--><g class="link" data-entity-1="ent0023" data-entity-2="ent0022" data-link-type="dependency" data-source-line="235" id="lnk46"><path codeLine="235" d="M230.16,1439.86 C268.02,1415.1 302.1194,1392.7916 345.4194,1364.4516" fill="none" id="NoteJury-to-Soutenance" style="stroke:#3366CC;stroke-width:2;"/><polygon fill="#3366CC" points="355.46,1357.88,336.018,1361.0437,347.0928,1363.3563,344.7802,1374.4312,355.46,1357.88" style="stroke:#3366CC;stroke-width:2;"/><text fill="#000000" font-family="sans-serif" font-size="26" lengthAdjust="spacing" textLength="39.0254" x="245.5054" y="1460.5328">0..*</text><text fill="#000000" font-family="sans-serif" font-size="26" lengthAdjust="spacing" textLength="14.46" x="325.5913" y="1396.0458">1</text></g><!--link NoteJury to Enseignant--><g class="link" data-entity-1="ent0023" data-entity-2="ent0011" data-link-type="dependency" data-source-line="236" id="lnk47"><path codeLine="236" d="M230.72,1580.46 C314.32,1631.2 436.52,1690 554,1690 C554,1690 554,1690 2463,1690 C2676.68,1690 2905.8584,1643.6708 3067.7584,1603.1908" fill="none" id="NoteJury-to-Enseignant" style="stroke:#3366CC;stroke-width:2;"/><polygon fill="#3366CC" points="3079.4,1600.28,3059.9971,1596.8851,3069.6986,1602.7056,3063.8781,1612.4072,3079.4,1600.28" style="stroke:#3366CC;stroke-width:2;"/><text fill="#000000" font-family="sans-serif" font-size="26" lengthAdjust="spacing" textLength="121.418" x="1328" y="1682.9902">&#233;valuateur</text><text fill="#000000" font-family="sans-serif" font-size="26" lengthAdjust="spacing" textLength="39.0254" x="245.3432" y="1617.7137">0..*</text><text fill="#000000" font-family="sans-serif" font-size="26" lengthAdjust="spacing" textLength="14.46" x="3049.7504" y="1632.7318">1</text></g><!--link EvaluationEncadrant to AffectationPFE--><g class="link" data-entity-1="ent0024" data-entity-2="ent0019" data-link-type="dependency" data-source-line="238" id="lnk48"><path codeLine="238" d="M1196.34,1417.88 C1220.16,1401.02 1244.42,1382.64 1266,1364 C1356.94,1285.5 1394.54,1272.56 1450,1166 C1508.76,1053.1 1446.92,996.54 1510,886 C1517.04,873.66 1517.8676,871.1015 1527.0276,859.7415" fill="none" id="EvaluationEncadrant-to-AffectationPFE" style="stroke:#3366CC;stroke-width:2;"/><polygon fill="#3366CC" points="1534.56,850.4,1517.0338,859.3906,1528.283,858.1846,1529.4891,869.4338,1534.56,850.4" style="stroke:#3366CC;stroke-width:2;"/><text fill="#000000" font-family="sans-serif" font-size="26" lengthAdjust="spacing" textLength="14.46" x="1212.3403" y="1437.3155">1</text><text fill="#000000" font-family="sans-serif" font-size="26" lengthAdjust="spacing" textLength="14.46" x="1502.1402" y="893.7598">1</text></g><!--link EvaluationEncadrant to Enseignant--><g class="link" data-entity-1="ent0024" data-entity-2="ent0011" data-link-type="dependency" data-source-line="239" id="lnk49"><path codeLine="239" d="M1196.22,1501.6 C1358.72,1508.82 1654.88,1521.28 1908,1528 C2326.4,1539.1 2805.4204,1544.3184 3067.5604,1546.5384" fill="none" id="EvaluationEncadrant-to-Enseignant" style="stroke:#3366CC;stroke-width:2;"/><polygon fill="#3366CC" points="3079.56,1546.64,3061.6284,1538.4879,3069.5604,1546.5553,3061.4929,1554.4873,3079.56,1546.64" style="stroke:#3366CC;stroke-width:2;"/><text fill="#000000" font-family="sans-serif" font-size="26" lengthAdjust="spacing" textLength="121.418" x="1961" y="1520.9902">&#233;valuateur</text><text fill="#000000" font-family="sans-serif" font-size="26" lengthAdjust="spacing" textLength="39.0254" x="1212.8061" y="1531.1031">0..*</text><text fill="#000000" font-family="sans-serif" font-size="26" lengthAdjust="spacing" textLength="14.46" x="3049.31" y="1574.864">1</text></g><?plantuml-src bLTBSzis4BxpLt3SGvrcxCPsamEdwGmhKnbx4jkr94zk7eXQoMX8WC53IVhuBxtwT_YFTHUaI12YbEIY0HVxmkwt3-cS5H2VHWKiJMnahFZgmSGBhY0tN8f8V-2YOegLSLumhLDZ59zR0nUv51F-5yGlGfRuxoYEVsVvXvMILYn6if0g_Y7BnY_7OxgHQW6gePwTlNer6Y4rLKf-2ebZAOopSV8Y-ZUAVenVltuTPrUpTnCwHI1i6T_A0cQ65rmp0rOvus3iWZDXw2Wqy9MeFzYYvC8HZO9ASGsargbvezW2ifRPgS6tS6rgqPBDtI-ZtzoTSpfNIYv1QxJSgff-gU0DFhs24XfDfHIo13pCUNF0ABhJHcXYcB5cOl-4MWB4FJC6vObvpGg-e0FBSwWCt6jfzRq23MfDP0LBwxtb77AkCNTt9DP5vJkrr1wbooK2WH4KDdxbqYfDZu9I8an8JSc9W0Vqc8aSxgk22RxaqFC-C70BsXQeUjAArL5VrDfogHeCafCVBMQBo49YP1nBYuXqDCrcjpKcQWJUO5Pu4SBYELya-2oC_8g-528d2V535vYOaIoh0epF3YNZXKzWQsQOcgaU4RH9qUbbWZX7pOpWzfoIC5BWefZ4v_WrvGu5HqTqhLDh7Z3L531r-8mULZyZQt0yv3r649JSSFHk-1gOzIYr5QnNYZUM7hfTo9K5D4KUVyPAG5rt4koX9W0wCcKLiDZXNPtcmoNF7z0_txr-kGGEhgYYah2mN3W0kuLnrU4BQ0UuSwuhAVWSCsB0l-PYqLmLS6drHylgKBOFn5Ai98BP5P7taXf_3NdHr4R_ZHdoM9UUGo4DF6lYjUGA0tDfrPV3FlyLCcb79tRTYyccjGmcJPOTG-_jY7H4dqzQWCuLhshC130SOMDaUIzw1Wge7gI0WJi4vHqeLuy-BlU4hQsjqVNLD7i_pR38qlFitSKViyohirG8W3J739VyenrySi7dK1ImdMYV8kqQbB4A9gwNwB1EdkU5t7TTiiy4tyz9V84TSmMgImYsWbAsxUihphLIamfnmWY2EzBeV-PoqNkVmG7W8hEjzrnY-iHNbRRXdymki-aapgRntNKsU--5tgNhPfmDgJ8SCVODM3AzIPK4aslJ8sySGDXGiIR-tAeDXQFd91cOHtNKIhB2iBVqk7slGxdJxr9skXr_GibGnBOXkQDdTqDdFCv6qtHwSNr5wPdCBkuk_ChevkQE915gyCedMLKqtNPtg3t5tRF6s9jXOlcQ3rcYfzo25UrB717B2RfwQT3GiddcARSwdTFQfdj5EwVDWOMW2aBPxMrtwTjP5w_hsJIxIgz6VZkXZXfi0y5JAbnNi9aBCsgwSs_EuaOoLx1zrPNrNkKKfni5Qmlzxg9PqC00eqrAkcXkuqSrsqqoiEVKvMvWp0KZpUD2CjDvITE5GZ686eKzIS79HgWZdMwJphP9lsnPwsPV9h2JgntZl95_wSdNURtDthgirllNzkRrwpz7H-qci_E-Mn1sShGxUzJkHGSlZez_Ei11zbjyS7BWT-qaPXLj6PnMyAV_Tefquo69kQ0kYNz-cD1HTn58X3ClYHLkwYn_U7e4PwdRYbh9pMdJ_fCOjowSUBGcE6jHsyxtMnlW2tJlrEJvbSJrq7zwZ7-krtCyORI6PV7enDl5nXCdeSWrrT3Q9k53bnipKHIqoLry8Tl9XkVu-CopjLzRBm0QXvnQS_V7BVBQPnZ-diOe2ZfKvyWMQyYvDnbFZtLNmtJKFGm1yKrMTblesu-Yjgc4CUvuTh7qd7rwhFk52znGxzZZxI3xjzdw7m00?></g></svg>